<svg width="29" height="28" viewBox="0 0 29 28" fill="none" xmlns="http://www.w3.org/2000/svg">
<mask id="mask0_528_8801" style="mask-type:alpha" maskUnits="userSpaceOnUse" x="0" y="0" width="29" height="28">
<path d="M28.5 14C28.5 21.4395 22.2487 27.5 14.5 27.5C6.75133 27.5 0.5 21.4395 0.5 14C0.5 6.56055 6.75133 0.5 14.5 0.5C22.2487 0.5 28.5 6.56055 28.5 14Z" fill="#D9D9D9" stroke="black"/>
</mask>
<g mask="url(#mask0_528_8801)">
<path d="M72.7103 67.2404C72.6759 67.1549 72.6771 67.0863 72.6263 67.0059C72.5873 66.9443 72.5388 66.8859 72.4941 66.8286C72.3837 66.6878 72.2722 66.5498 72.1699 66.4023C71.9835 66.1337 71.8162 65.8561 71.6133 65.5996C71.2398 65.1274 70.843 64.6921 70.3713 64.3204C69.6971 63.7894 68.9313 63.3949 68.13 63.107C67.7958 62.9482 67.4559 62.8023 67.1064 62.6823C66.4418 62.4545 65.7631 62.3019 65.0722 62.218C65.194 62.1772 65.3174 62.142 65.4446 62.1192C65.6191 62.0878 65.5832 61.8388 65.4236 61.8153C64.8808 61.7353 64.3411 61.6506 63.7965 61.5941C63.8114 61.4557 63.6586 61.3529 63.5325 61.3671C62.6881 61.462 61.8386 61.5231 60.9911 61.5941C57.9233 61.6972 54.8578 61.869 51.7977 62.1172C50.1779 62.2486 48.5622 62.4216 46.9458 62.5914C46.1495 62.6749 45.3531 62.7847 44.5533 62.8239C43.7555 62.8631 42.9518 62.8486 42.1547 62.7937C41.2766 62.7333 40.4157 62.5514 39.5709 62.3031C39.1473 62.1788 38.7283 62.0388 38.3108 61.8953C38.1302 61.8333 37.9499 61.7694 37.77 61.7051C37.7704 61.7043 37.7704 61.7039 37.7708 61.7031C37.9411 61.227 38.1057 60.7439 38.2146 60.2486C38.3196 59.7702 38.4159 59.2882 38.467 58.8C38.4797 58.6812 38.4896 58.5619 38.4968 58.4423C38.5102 58.491 38.5232 58.54 38.5335 58.5898C38.5771 58.8063 38.8685 58.7678 38.8963 58.5631C39.1171 56.9419 38.697 55.307 38.3655 53.7341C38.0213 52.1015 37.7666 50.4412 37.513 48.7917C37.3858 47.9639 37.2624 47.1353 37.1497 46.3051C37.0405 45.5008 36.9236 44.7012 36.7376 43.9114C36.411 42.5266 35.9168 41.1886 35.3496 39.8906C35.0372 39.1757 34.6675 38.4929 34.2469 37.8388C34.0357 37.5098 33.8119 37.1878 33.5682 36.8831C33.7351 36.9572 33.9261 36.7419 33.8386 36.569C33.645 36.1859 33.4078 35.8216 33.1825 35.4576C32.9563 35.0929 32.7241 34.7314 32.4774 34.3808C31.995 33.6945 31.4649 33.0466 30.8709 32.4588C30.2613 31.8557 29.6017 31.3074 28.9291 30.78C28.2783 30.2694 27.6255 29.7592 26.9602 29.2682C26.5844 28.991 26.1978 28.7188 25.7846 28.5031C25.4909 28.3494 25.141 28.1572 24.7946 28.1149C24.7598 27.7659 24.7094 27.4188 24.6785 27.0694C24.6426 26.6635 24.6865 26.2784 24.73 25.8761C24.7743 25.4674 24.7174 25.071 24.6009 24.68C24.5432 24.4859 24.4608 24.3023 24.4008 24.109C24.3389 23.9094 24.316 23.698 24.2977 23.4898C24.2789 23.2765 24.2763 23.0647 24.2854 22.8506C24.2946 22.6263 24.3401 22.411 24.3618 22.1882C24.4008 21.7894 24.3756 21.4 24.5219 21.0223C24.5792 20.8745 24.633 20.7129 24.6193 20.5513C24.6059 20.3929 24.5314 20.2659 24.4585 20.1298C24.3855 19.9937 24.3232 19.9004 24.387 19.7486C24.4726 19.5439 24.5608 19.3698 24.596 19.1459C24.6532 18.7843 24.6212 18.3851 24.4699 18.049C24.5589 17.9266 24.6479 17.8039 24.7411 17.6839C24.8809 17.5035 24.9668 17.3086 24.9684 17.0749C24.9703 16.8368 24.9397 16.5949 24.9218 16.358C24.9027 16.1059 24.8839 15.8537 24.8648 15.6016C24.8568 15.4953 24.8511 15.3521 24.8186 15.2251C24.9875 15.0031 25.1288 14.76 25.2281 14.4964C25.4263 13.9702 25.5291 13.389 25.6471 12.8392C25.7322 12.4415 25.8442 11.8992 25.7189 11.4706C25.7193 11.4694 25.72 11.4686 25.7204 11.4674C26.2085 10.2913 26.4999 9.01017 26.4556 7.72664C26.4339 7.09409 26.3414 6.4635 26.1467 5.86193C25.9729 5.32585 25.7345 4.57448 25.0615 4.59331C24.7399 4.60233 24.4501 4.75449 24.1663 4.89488C23.871 5.04076 23.5766 5.18821 23.2844 5.33997C22.6912 5.64821 22.1068 5.97605 21.5507 6.35095C20.9797 6.73566 20.4278 7.16272 19.9496 7.66585C19.7242 7.90272 19.4974 8.15998 19.2995 8.43723C19.2529 8.38311 19.2021 8.33801 19.1437 8.31487C18.7614 8.16468 18.4753 8.6486 18.2675 8.88507C18.0074 9.18076 17.5231 9.0788 17.1778 9.05723C16.9838 9.04507 16.7932 9.02625 16.6068 8.96625C16.4479 8.91527 16.2841 8.83371 16.1183 8.79959C15.8678 8.48155 15.432 8.26742 15.0363 8.40154C14.9515 8.43017 15.0324 8.4239 14.9725 8.38978C14.9247 8.36233 14.8934 8.33017 14.8396 8.3086C14.738 8.2686 14.6299 8.27252 14.5271 8.30194C14.411 8.33448 14.3167 8.39762 14.2181 8.46586C14.1754 8.49566 14.1326 8.52546 14.0852 8.54781C14.0676 8.55605 14.0333 8.56311 14.0233 8.57409C14.0016 8.53135 13.9657 8.44547 13.9584 8.43449C13.9279 8.39096 13.8965 8.35291 13.8538 8.32037C13.7571 8.24703 13.6387 8.21762 13.5199 8.23526C13.4046 8.25252 13.3122 8.31644 13.2064 8.35919C13.1491 8.38272 13.0967 8.38586 13.0433 8.38664C12.9493 8.28978 12.8577 8.19017 12.7759 8.08233C12.6785 7.9537 12.5945 7.81762 12.5193 7.67448C12.4318 7.50821 12.3451 7.34664 12.1973 7.22781C12.0739 7.1286 11.9223 7.0839 11.789 7.00272C11.7118 6.95606 11.6591 6.88742 11.6117 6.81409C11.365 6.20076 11.0064 5.63605 10.6473 5.08703C10.1699 4.35762 9.6558 3.65409 9.10198 2.98389C8.83271 2.65801 8.55466 2.33959 8.26782 2.02978C8.00886 1.74978 7.73882 1.45879 7.40653 1.26977C7.04483 1.06389 6.63883 0.992128 6.24466 1.14311C6.16407 1.17409 6.0873 1.21605 6.01817 1.26624C5.94178 1.26664 5.86234 1.29762 5.81574 1.35762C5.69581 1.51173 5.65876 1.70586 5.60299 1.89096C5.54341 2.0886 5.48688 2.28703 5.42959 2.48507L5.1057 3.60861C4.89258 4.34743 4.60268 5.10899 4.54959 5.88311C4.52362 6.2588 4.57174 6.63449 4.6065 7.00782C4.64278 7.39684 4.63437 7.78232 4.59924 8.17095C4.53049 8.93173 4.41514 9.6788 4.49878 10.4439C4.50604 10.5094 4.51636 10.5741 4.52591 10.6388C4.49191 10.7306 4.47817 10.8419 4.46709 10.9047C4.42928 11.1184 4.41476 11.3388 4.38803 11.5545C4.33723 11.9631 4.26694 12.3729 4.05267 12.7294C3.94649 12.9059 3.79143 13.0482 3.69327 13.229C3.57028 13.4553 3.55997 13.6964 3.68906 13.9231C3.69747 13.938 3.70549 13.9533 3.71389 13.9678C3.70052 14.0094 3.68716 14.0506 3.67685 14.0933C3.65164 14.1996 3.6375 14.3078 3.61038 14.4137C3.55577 14.6262 3.49045 14.8376 3.42285 15.0463C3.28573 15.467 3.13104 15.8808 3.00959 16.3066C2.76323 17.1686 2.59671 18.0572 2.51268 18.9514C2.34462 20.74 2.54246 22.5208 2.97788 24.2561C3.05465 24.5615 3.1383 24.8651 3.22691 25.167C3.13868 25.6776 3.03709 26.1913 2.8992 26.6902C2.75445 27.2141 2.56997 27.7259 2.4023 28.2427C2.06771 29.2745 1.76521 30.3082 1.63306 31.3913C1.50014 32.4819 1.54025 33.5753 1.72435 34.6565C1.81792 35.2059 1.93441 35.7514 2.02035 36.3023C2.10323 36.8349 2.22011 37.3659 2.27702 37.9027C2.41108 39.1639 2.38893 40.438 2.53292 41.6972C2.54095 41.7678 2.60702 41.8416 2.67272 41.8604C2.88393 41.9204 3.09324 41.9416 3.29987 41.9941C3.08674 42.3137 2.97368 42.698 2.87629 43.0686C2.73497 43.6051 2.8568 44.14 2.96948 44.6682C3.08253 45.1988 3.18147 45.7486 3.37091 46.2572C3.49466 46.589 3.74788 46.8776 4.07292 46.9557C3.94459 47.2945 3.8766 47.6514 3.8808 48.0208C3.88271 48.1666 3.98699 48.2514 4.12449 48.2376C4.34372 48.2157 4.56219 48.1902 4.78105 48.1655C4.71612 48.2992 4.65539 48.4341 4.60879 48.5835C4.53317 48.827 4.47893 49.0776 4.44226 49.3302C4.40865 49.5623 4.39337 49.7976 4.40751 50.029C4.39146 50.218 4.39261 50.4059 4.40445 50.6012C4.43806 51.1663 4.50031 51.7314 4.56486 52.2933C4.69625 53.4337 4.84713 54.5721 4.97928 55.7129C4.99036 55.8082 5.0931 55.8819 5.18782 55.88C5.16414 56.229 5.15994 56.58 5.14008 56.9294C5.11181 57.4302 5.06292 57.9294 5.01136 58.4282C4.90861 59.42 4.77531 60.4165 4.78524 61.4157C4.79021 61.9321 4.8265 62.4494 4.89945 62.9604C4.96896 63.4459 5.13434 63.9204 5.17559 64.409C5.20385 64.74 5.16643 65.0498 5.09844 65.3576C5.03962 65.5098 4.98271 65.6623 4.91931 65.8125C4.7249 66.2718 4.50528 66.7153 4.26771 67.1521C4.03435 67.5812 3.80289 68.0102 3.56111 68.4345C3.5 68.5416 3.43928 68.649 3.37855 68.7565C2.92327 68.6353 2.34195 68.8667 1.98063 69.0953C1.4249 69.4471 1.00476 69.9659 0.646874 70.5188C0.30427 71.0474 -0.0742304 71.6196 -0.193397 72.2525C-0.310272 72.8718 -0.0685099 73.4639 0.48531 73.7588C1.04066 74.0549 1.69837 74.0859 2.30948 74.1525C3.05427 74.2337 3.80098 74.2953 4.54882 74.3376C5.28903 74.3796 6.05102 74.4451 6.79161 74.3961C7.11282 74.3749 7.42373 74.3067 7.69414 74.1208C7.94317 73.9498 8.15476 73.7027 8.35529 73.4749C8.82699 72.9388 9.26508 72.3576 9.39226 71.6286C9.44879 71.3039 9.49692 70.9557 9.41174 70.6318C9.40372 70.6004 9.38882 70.5718 9.37851 70.5412C9.41289 70.5016 9.44611 70.4604 9.47896 70.4176C9.60882 70.2486 9.72914 70.0737 9.84411 69.8937C10.0809 69.5231 10.2654 69.1643 10.2497 68.7078C10.2493 68.6953 10.2474 68.6827 10.2471 68.6702C10.3292 68.5129 10.3502 68.3172 10.3758 68.1451C10.409 67.9216 10.4487 67.7004 10.4927 67.4788C10.5797 67.0427 10.692 66.6129 10.7967 66.1812C10.9823 65.4141 11.158 64.64 11.0954 63.8498C11.2894 63.867 11.4849 63.831 11.6053 63.6561C11.7088 63.5059 11.6855 63.3286 11.6522 63.1588C11.6232 63.011 11.5934 62.8631 11.5636 62.7153C11.658 62.7 11.7489 62.6517 11.8199 62.5674C11.907 62.4635 11.9391 62.3333 11.9601 62.2008C11.9849 62.0439 12.0334 61.8984 12.0903 61.751C12.1969 61.4745 12.279 61.202 12.4253 60.9427C12.4574 60.8863 12.4914 60.8302 12.5246 60.7741C12.5406 60.84 12.5593 60.9039 12.5788 60.9619C12.6873 61.2784 12.8703 61.5533 13.0402 61.8369C13.0918 61.9231 13.1418 62.0106 13.1911 62.0984C13.1628 62.2392 13.1357 62.3788 13.1078 62.5149C12.9753 63.1592 12.8493 63.8043 12.7351 64.4521C12.5063 65.7498 12.2133 67.0545 11.831 68.3141C11.6438 68.9302 11.4467 69.5482 11.2317 70.1545C11.1469 70.3941 11.0449 70.6396 10.82 70.7718C10.5962 70.9031 10.3441 70.9659 10.1264 71.1125C9.72303 71.3843 9.41441 71.8035 9.23032 72.26C9.14094 72.4823 9.10695 72.7357 9.04278 72.967C8.97441 73.2125 8.91368 73.4612 8.85486 73.709C8.70972 74.3235 8.58216 75.0427 8.93661 75.6102C9.16386 75.9737 9.54046 76.2447 9.94035 76.1851C10.0404 76.2769 10.1653 76.3525 10.2314 76.3871C10.5152 76.5365 10.8249 76.6153 11.1431 76.6325C11.3856 76.6455 11.6362 76.6298 11.8772 76.5816C12.0376 76.6463 12.2397 76.6631 12.3726 76.68C12.6804 76.7192 12.9913 76.7176 13.2999 76.6867C13.5979 76.6569 13.8916 76.5874 14.1746 76.4882C14.2781 76.4518 14.3789 76.4106 14.4771 76.3635C14.9515 76.6314 15.6512 76.3945 16.069 76.1263C16.666 75.7427 17.0476 75.1384 17.3249 74.4878C17.9303 73.0667 18.203 71.5063 18.591 70.0141C18.7048 69.5772 18.8271 69.1423 18.9672 68.7137C19.0337 68.5098 19.1044 68.3074 19.1796 68.1066C19.2052 68.0384 19.2327 67.9686 19.2571 67.898C19.2705 67.9172 19.2843 67.9369 19.2969 67.9557C19.4057 68.1188 19.5203 68.2761 19.636 68.4337C19.7052 68.5278 19.8404 68.4788 19.8786 68.3847C19.9802 68.1325 19.9435 67.8667 19.8954 67.6063C19.8614 67.4212 19.8262 67.2361 19.7911 67.0514C19.8369 67.0823 19.8831 67.1129 19.9274 67.147C19.9901 67.1949 20.102 67.1765 20.141 67.1043C20.2246 66.9498 20.2827 66.7941 20.317 66.6318C20.3422 66.709 20.369 66.7859 20.3885 66.8659C20.505 67.3427 20.5286 67.8349 20.4534 68.3208C20.2834 69.4223 19.4 70.3435 19.5994 71.5137C19.6482 71.8004 19.7812 72.0729 19.9939 72.2674C20.0917 72.3572 20.2223 72.427 20.3571 72.429C20.3632 72.429 20.3686 72.4267 20.3747 72.4267C20.4648 72.6965 20.6493 72.9302 20.8735 73.0961C21.1661 73.3129 21.5293 73.42 21.8841 73.4604C22.0889 73.4839 22.2852 73.4796 22.4681 73.3784C22.4895 73.3667 22.5258 73.3537 22.5514 73.3365C22.5652 73.3271 22.5766 73.3161 22.5885 73.3051C22.6011 73.3153 22.6125 73.327 22.6255 73.3368C23.0204 73.6361 23.5651 73.7737 24.0398 73.8631C24.5856 73.9659 25.0833 73.882 25.6096 73.7251C25.8499 73.6537 26.0875 73.5737 26.33 73.5082C26.5901 73.4376 26.8655 73.4106 27.1328 73.3823C27.6534 73.327 28.1767 73.3 28.6961 73.2368C29.2011 73.1753 29.6938 73.0655 30.1815 72.92C30.6784 72.7718 31.1746 72.6176 31.6856 72.531C32.1596 72.4506 32.6393 72.4153 33.1179 72.3819C33.6607 72.3439 34.2053 72.3098 34.7427 72.2188C35.0062 72.1745 35.2641 72.1149 35.5177 72.0282C35.6685 71.9768 35.8003 71.8988 35.9252 71.8082C36.2166 71.7176 36.5057 71.6165 36.7956 71.5333C37.0737 71.4537 37.3544 71.3855 37.6378 71.3286C37.9384 71.2678 38.2574 71.2521 38.543 71.1376C38.7783 71.0431 38.658 70.7165 38.4533 70.6851C38.375 70.6729 38.2906 70.6208 38.215 70.5949C38.1405 70.5698 38.0645 70.5494 37.9881 70.5302C38.1894 70.4561 38.3952 70.3953 38.6065 70.3521C38.7974 70.3129 38.9911 70.2855 39.1855 70.2733C39.3451 70.2635 39.5258 70.2478 39.6862 70.2847C39.7255 70.3004 39.7664 70.3118 39.8084 70.318C40.0036 70.3776 40.1323 70.1165 40.0147 69.9631C39.9135 69.8318 39.7397 69.7765 39.5907 69.7188C39.454 69.6659 39.3138 69.6216 39.1714 69.5867C39.1607 69.5839 39.1496 69.5819 39.1393 69.5796C39.2558 69.547 39.3719 69.5165 39.4853 69.487C39.8585 69.3894 40.2351 69.3106 40.6193 69.2776C41.3889 69.2121 42.1559 69.2078 42.9262 69.26C43.1264 69.2733 43.2608 68.9576 43.0611 68.8525C43.0408 68.8419 43.0194 68.8345 42.9988 68.8239C43.4205 68.8443 43.8429 68.851 44.2627 68.8392C44.4472 68.8341 44.6297 68.8188 44.8127 68.8039C44.8329 68.8023 44.8528 68.8016 44.873 68.8C44.9574 68.7925 45.0422 68.7855 45.1263 68.7765C45.279 68.7608 45.4322 68.7443 45.5853 68.729C46.0632 68.6816 46.5413 68.6357 47.0195 68.5898C47.9962 68.4961 48.9701 68.3647 49.9437 68.2447C51.8683 68.0074 53.793 67.7694 55.7172 67.5278C57.6525 67.2851 59.5878 67.0423 61.5231 66.7996C62.0082 66.7388 62.4933 66.6812 62.978 66.6176C63.4428 66.5565 63.903 66.4553 64.3679 66.3984C65.2654 66.2886 66.197 66.5439 67.0426 66.8247C67.9425 67.1235 68.8179 67.4988 69.759 67.6459C70.2124 67.7169 70.6722 67.7278 71.1268 67.6616C71.3597 67.6274 71.5862 67.5678 71.8158 67.5161C71.9365 67.489 72.0576 67.4647 72.1806 67.4514C72.2443 67.4447 72.3051 67.4294 72.3654 67.4125C72.4132 67.4318 72.462 67.4463 72.5159 67.4706C72.6534 67.5357 72.7592 67.3616 72.7103 67.2404Z" fill="#272525"/>
</g>
</svg>
