<svg width="179" height="176" viewBox="0 0 179 176" fill="none" xmlns="http://www.w3.org/2000/svg">
<path d="M174.708 120.04C173.347 119.142 171.805 118.532 170.189 118.126C170.172 118.104 170.155 118.081 170.138 118.058C168.35 115.733 166.208 113.546 163.449 112.253C160.065 110.667 156.027 110.58 152.33 111.378C148.632 112.176 145.212 113.797 141.907 115.519C139.591 116.726 137.314 117.998 135.072 119.318C134.224 116.555 133.086 113.877 131.542 111.384C128.652 106.719 124.281 102.716 119.12 101.265C117.93 100.097 117.593 98.415 117.362 96.828C116.479 90.788 116.359 84.653 117.003 78.587C117.086 77.807 117.175 76.9861 116.831 76.2691C116.487 75.5521 115.538 75.0161 114.768 75.3531C114.464 75.4861 114.237 75.729 114.026 75.971C111.73 78.61 110.381 81.831 109.272 85.053C107.375 90.561 106.071 96.242 105.077 102.065C102.504 102.523 100.03 103.422 97.7939 104.694C92.8769 103.654 88.6389 100.607 85.2279 97.1421C85.1039 97.0161 84.9869 96.886 84.8649 96.759C84.8049 95.899 84.7789 95.0371 84.7949 94.1751C84.8039 93.7121 84.7989 93.191 84.4379 92.868C83.7439 92.245 82.7259 92.948 82.1479 93.742C79.7589 90.937 77.5189 88.0171 74.9319 85.3651C68.9579 79.2421 61.3089 74.7421 53.6929 70.4261C49.3139 67.9441 44.8329 65.4651 39.8569 64.2651C31.2979 62.2011 21.9399 64.3321 14.7729 69.1491C12.6439 66.5641 11.4359 63.329 11.5049 60.083C11.6049 55.391 14.3669 50.8141 18.6439 48.2541C23.2599 45.4911 29.0979 45.1471 34.5929 45.4861C40.0879 45.8251 45.5899 46.7611 51.0669 46.2351C61.2549 45.2561 70.6049 38.821 74.5019 30.108C78.3979 21.395 76.6759 10.7731 70.1849 3.48505C68.9969 2.15105 67.6049 0.888062 65.8429 0.301062C64.0809 -0.286938 61.8809 -0.0399394 60.6689 1.27506C59.9099 2.09806 59.6309 3.21305 59.5799 4.29105C59.3889 8.28105 61.9099 11.885 63.4559 15.618C65.1609 19.735 65.6709 24.468 63.7319 28.497C61.2309 33.694 55.1489 36.7431 49.0889 37.8611C43.0299 38.9791 36.7759 38.5411 30.6029 38.8271C24.4309 39.1131 17.9719 40.2701 13.2909 43.9811C8.76986 47.5651 6.51186 53.2051 6.59986 58.6931C6.67586 63.4351 8.36886 68.054 10.9339 72.187C10.9079 72.211 10.8809 72.2341 10.8559 72.2581C3.44886 79.1961 -0.151141 89.1391 0.00485897 98.8601C0.159859 108.582 3.83886 118.071 9.32586 126.382C10.8609 128.706 12.5479 131.702 10.8529 133.93C10.7829 135.923 8.77986 136.899 7.89686 138.526C6.33686 141.401 8.85586 144.723 11.5319 146.79C20.8719 154.006 33.4049 156.399 45.3769 158.553C48.4929 159.114 51.6089 159.674 54.7249 160.235C56.6889 159.295 58.4739 158.04 59.9769 156.544C61.3319 158.649 63.1319 160.853 65.4259 162.468C80.6419 165.636 94.5089 174.049 110.144 175.491C113.967 174.958 116.091 171.221 115.404 168.164C114.717 165.107 112.126 162.74 109.484 160.78C105.909 158.129 101.825 155.836 97.5059 154.4C97.6219 154.19 97.7229 153.974 97.8159 153.755C101.2 154.679 104.731 155.09 108.252 154.845C115.481 154.343 122.566 150.913 126.684 145.741C130.938 145.275 134.387 142.041 135.884 138.35C137.097 135.359 137.231 132.114 136.946 128.912C142.449 127.048 150.952 124.012 153.932 123.993C156.654 126.712 159.356 129.367 162.351 131.705C163.291 132.439 164.288 133.155 165.461 133.505C167.21 134.026 169.012 133.574 170.485 132.585C171.111 132.802 171.754 132.958 172.423 132.999C175.621 133.194 178.498 130.517 178.823 127.585C179.146 124.652 177.312 121.757 174.708 120.04Z" fill="#191919"/>
<path d="M108.252 93.1312C108.407 91.4002 109.257 88.3992 110.075 86.1412C110.889 83.9572 112.034 81.8762 113.184 79.8262C112.463 81.9342 111.736 84.0482 111.159 86.1922C110.623 88.5832 109.917 92.0352 109.843 93.3252C109.55 95.3952 108.946 98.8472 109.33 101.484C109.353 101.59 109.361 101.649 109.376 101.695C109.416 101.692 109.449 101.687 109.445 101.693C110.325 101.537 111.332 100.998 112.316 101.163C113.222 101.262 114.131 101.596 114.783 102.194C114.201 101.829 113.485 101.641 112.786 101.601C111.779 101.48 110.919 101.983 110.052 102.369C108.245 103.195 108.216 101.266 108.017 100.145C107.55 97.8242 107.934 95.4492 108.252 93.1312Z" fill="#F2F2F2"/>
<path d="M114.798 78.3848C114.769 80.5118 114.608 82.8658 114.29 84.8218C114.073 82.6658 114.269 80.4928 114.798 78.3848Z" fill="#F2F2F2"/>
<path d="M79.8627 111.361C80.1757 107.465 80.8207 103.798 81.7067 99.708C81.4997 104.641 81.3987 109.578 81.3597 114.512C81.3837 116.259 81.6157 117.075 82.0627 118.894C82.2747 119.67 82.4657 120.454 82.7537 121.21C82.7667 121.237 82.7797 121.264 82.7927 121.292C83.2147 120.954 83.4817 120.361 83.8417 119.766C84.3257 119.118 84.9087 118.518 85.5507 117.998C86.1407 117.541 87.0907 117.627 87.4767 116.929C87.2857 117.469 86.7407 117.734 86.2217 117.965C85.4877 118.452 85.0847 119.259 84.6167 119.951C84.4377 120.252 84.2217 121.101 83.8437 121.618C82.3957 123.61 81.4697 121.585 81.0097 120.222C80.5707 118.989 80.0827 117.748 79.8627 116.463C79.5787 114.766 79.7957 113.063 79.8627 111.361Z" fill="#F2F2F2"/>
<path d="M83.2297 97.5068C83.5767 100.221 83.7437 102.857 85.2977 105.384C84.4907 104.412 83.7307 103.374 83.3967 102.175C83.0297 100.647 83.1397 99.0578 83.2297 97.5068Z" fill="#F2F2F2"/>
<path d="M91.7997 107.135C91.5517 109.028 90.9637 110.889 89.8677 112.518C90.5517 110.735 91.0847 108.908 91.7997 107.135Z" fill="#F2F2F2"/>
<path d="M93.1029 107.487C92.8729 109.126 92.3799 110.724 91.6079 112.217C92.0089 110.615 92.4729 109.026 93.1029 107.487Z" fill="#F2F2F2"/>
<path d="M97.0246 106.26C96.1146 108.117 94.7586 109.759 93.3496 111.317C94.3716 109.509 95.6756 107.868 97.0246 106.26Z" fill="#F2F2F2"/>
<path d="M101.867 104.578C102.904 104.317 104.241 104.387 105.185 104.367C104.092 104.63 102.939 104.673 101.878 105.042C100.309 105.718 98.888 106.641 97.376 107.413C98.768 106.35 100.134 105.148 101.867 104.578Z" fill="#F2F2F2"/>
<path d="M87.7496 106.62C88.4036 108.037 88.7677 109.371 88.9367 110.9C89.0537 111.294 89.1016 111.379 88.8656 110.948C88.5236 110.137 88.3157 109.282 87.9247 108.485C87.8047 108.204 87.2707 107.309 87.0667 106.793C86.1197 104.635 85.8746 102.294 85.5146 100.009C86.3276 102.194 86.9096 104.444 87.7496 106.62Z" fill="#F2F2F2"/>
<path d="M76.4618 126.506C76.1978 125.899 76.1028 125.241 75.9418 124.607C75.4058 123.282 75.2008 121.887 75.0958 120.481C74.8668 118.465 74.6808 116.446 74.6338 114.419C75.2668 117.283 75.9438 120.654 76.6838 123.249C76.7428 123.384 76.9768 123.854 77.1228 124.265C77.3398 124.922 77.4648 125.822 77.6968 126.242C78.0608 127.076 78.7318 127.816 78.9048 128.708C78.9828 129.464 78.2718 130.003 77.7598 130.503C76.9178 131.242 76.2128 132.093 75.8138 133.107C75.5828 133.642 75.3918 134.191 75.2438 134.75C75.2698 134.176 75.3488 133.605 75.4748 133.042C75.7038 131.51 76.8718 130.285 77.6868 129.241C77.8898 128.927 77.8798 128.926 77.7998 128.691C77.4308 128.079 76.8158 127.244 76.4618 126.506Z" fill="#F2F2F2"/>
<path d="M78.4428 132.132C77.2408 134.679 76.5248 137.376 76.0728 140.115C75.8248 137.271 76.6388 134.459 78.4428 132.132Z" fill="#F2F2F2"/>
<path d="M79.639 135.533C79.167 138.07 78.66 140.607 78.248 143.151C78.01 140.563 78.588 137.932 79.639 135.533Z" fill="#F2F2F2"/>
<path d="M81.2716 140.938C81.3386 142.849 81.2236 144.758 81.2096 146.667C80.7336 144.785 80.8906 142.822 81.2716 140.938Z" fill="#F2F2F2"/>
<path d="M82.4686 142.739C82.6926 144.565 82.9876 146.393 83.4606 148.179C82.5326 146.511 82.2596 144.589 82.4686 142.739Z" fill="#F2F2F2"/>
<path d="M84.9757 147.111C84.6787 146.278 84.5087 145.412 84.4277 144.539C84.7107 145.376 84.9017 146.238 84.9757 147.111Z" fill="#F2F2F2"/>
<path d="M88.4047 145.546C89.5117 146.399 90.3607 147.49 91.0647 148.644C90.0997 147.551 88.9747 146.607 87.8537 145.662C87.0597 144.714 86.4417 143.636 86.1357 142.469C86.7317 143.583 87.5087 144.618 88.4047 145.546Z" fill="#F2F2F2"/>
<path d="M80.777 131.507C80.541 132.88 81.05 134.242 81.745 135.441C82.442 136.749 83.078 138.085 83.666 139.438C82.174 137.062 79.661 134.416 80.777 131.507Z" fill="#F2F2F2"/>
<path d="M123.222 132.869C122.772 133.003 122.848 133.121 122.516 133.363C121.902 133.967 121.157 134.484 120.358 134.952C119.404 135.649 118.399 136.295 117.388 136.934C117.228 137.035 117.235 137.252 117.4 137.347C117.808 137.582 118.213 137.824 118.636 138.022C119.124 138.25 119.54 138.475 119.96 138.695C120.492 138.974 121.064 139.196 121.665 139.3C122.037 139.365 122.416 139.394 122.801 139.379C123.028 139.327 122.88 139.412 123.048 139.284C123.245 139.656 125.125 144.253 125.642 142.824C125.136 141.4 124.531 139.98 123.855 138.58C124.006 138.347 124.12 138.086 124.213 137.824C124.265 137.742 124.297 137.646 124.309 137.534C124.641 136.108 124.831 134.34 123.748 133.146C123.655 132.963 123.447 132.836 123.222 132.869Z" fill="#F2F2F2"/>
<path d="M123.113 119.505C123.709 119.032 124.502 118.846 125.256 118.695C125.944 118.606 126.638 118.426 127.331 118.577C129.082 119.054 130.599 120.402 130.839 122.109C130.918 122.613 130.952 123.133 130.921 123.648C130.941 123.783 130.955 123.921 130.962 124.06C130.604 125.76 129.176 127.452 127.308 127.893C125.971 128.075 124.47 127.475 123.377 126.8C122.077 125.77 121.778 124.04 121.667 122.542C121.643 121.418 122.191 120.243 123.113 119.505Z" fill="#F2F2F2"/>
<path d="M99.4 134.702C99.887 133.278 101.445 132.473 102.898 132.023C104.432 131.52 106.135 131.613 107.556 132.269C108.568 132.495 109.527 132.996 110.154 133.736C110.911 134.828 111.161 136.195 110.946 137.489C110.907 138.033 110.733 138.537 110.455 138.986C110.295 139.302 110.115 139.608 109.888 139.886C109.252 140.702 108.31 141.106 107.29 141.319C106.029 141.945 104.536 142.086 103.083 141.439C99.782 140.806 98.008 137.909 99.4 134.702Z" fill="#F2F2F2"/>
<path d="M135.227 124.578C134.259 121.057 132.716 118.3 131.091 114.976C133.291 117.898 135.184 121.07 135.227 124.578Z" fill="#F2F2F2"/>
<path d="M136.541 123.352C136.108 126.132 135.321 128.918 133.697 131.323C134.713 128.688 135.564 126 136.541 123.352Z" fill="#F2F2F2"/>
<path d="M135.645 128.981C135.404 130.384 134.947 131.742 134.297 133.03C134.669 131.659 135.118 130.307 135.645 128.981Z" fill="#F2F2F2"/>
<path d="M126.364 141.345C127.105 138.93 128.047 136.577 129.16 134.291C130.057 131.126 131.143 128.005 132.883 125.137C132.118 127.148 131.498 129.2 130.913 131.259C130.24 132.911 129.654 134.6 128.923 136.24C128.195 137.992 127.351 139.702 126.364 141.345Z" fill="#F2F2F2"/>
<path d="M131.689 136.12C130.627 138.175 129.469 140.195 128.012 142.039C129.01 139.954 130.214 137.954 131.689 136.12Z" fill="#F2F2F2"/>
<path d="M132.659 139.622C131.61 140.875 130.444 142.044 129.125 143.061C130.174 141.807 131.361 140.659 132.659 139.622Z" fill="#F2F2F2"/>
<path d="M122.805 146.008C121.114 147.53 119.271 148.939 117.156 149.934C118.956 148.571 120.787 147.224 122.805 146.008Z" fill="#F2F2F2"/>
<path d="M121.163 145.596C116.781 147.852 112.309 150.085 107.373 151.118C111.94 149.215 116.423 147.125 121.163 145.596Z" fill="#F2F2F2"/>
<path d="M118.7 144.702C115.833 145.511 112.999 146.418 110.105 147.143C107.593 147.752 105.058 148.291 102.607 149.09C107.538 146.575 113.186 145.541 118.7 144.702Z" fill="#F2F2F2"/>
<path d="M121.462 129.805C120.827 131.28 120.063 132.706 119.127 134.04C119.762 132.565 120.527 131.14 121.462 129.805Z" fill="#F2F2F2"/>
<path d="M120.118 129.393C119.606 131.051 118.967 132.68 118.06 134.192C118.606 132.544 119.288 130.938 120.118 129.393Z" fill="#F2F2F2"/>
<path d="M119.297 129.324C118.863 130.696 118.359 132.058 117.649 133.331C118.072 131.953 118.617 130.612 119.297 129.324Z" fill="#F2F2F2"/>
<path d="M118.252 128.981C117.82 130.374 117.42 132.083 116.655 133.224C117.111 131.789 117.472 130.311 118.252 128.981Z" fill="#F2F2F2"/>
<path d="M117.132 128.981C116.81 130.363 116.528 131.775 115.858 133.057C116.181 131.673 116.49 130.276 117.132 128.981Z" fill="#F2F2F2"/>
<path d="M83.35 130.27C83.47 130.987 83.604 131.913 83.974 132.24C84.778 133.128 85.615 134.006 86.176 135.049C86.718 135.857 87.151 137.27 87.323 137.599C87.793 138.446 88.74 139.072 89.576 140.169C90.52 141.227 90.355 142.829 90.696 143.667C90.853 143.987 91.046 144.122 91.372 144.377C92.117 144.956 92.836 145.564 93.752 145.915C94.501 146.212 95.3 146.414 96.118 146.444C95.235 146.559 94.333 146.481 93.474 146.269C92.518 146.041 91.684 145.535 90.863 145.049C90.074 144.67 89.57 143.982 89.388 143.19C89.152 142.228 88.952 141.393 88.428 140.911C87.61 139.972 86.454 139.256 85.916 138.13C85.275 136.233 84.556 134.657 83.163 132.971C82.54 132.229 82.563 131.264 82.531 130.372C82.382 128.664 82.155 127.242 81.708 125.511C82.438 127.038 82.984 128.637 83.35 130.27Z" fill="#F2F2F2"/>
<path d="M99.0976 150.705C100.565 151.643 102.433 152.403 104.222 151.804C102.463 152.794 100.274 152.178 98.7476 151.102C97.4526 150.681 96.2846 150.015 95.0566 149.463C96.4236 149.814 97.7486 150.303 99.0976 150.705Z" fill="#F2F2F2"/>
<path d="M84.5168 124.471C85.0518 122.78 86.1988 121.312 86.8978 119.676C86.5918 120.751 86.0428 122.187 85.6438 123.013C85.2358 123.837 84.9088 124.772 84.9098 125.734C84.8138 126.376 84.7018 127.033 85.0188 127.64C85.1628 128.054 85.6208 129.218 85.1108 128.221C84.8298 127.728 84.4508 127.251 84.4118 126.679C84.4228 125.945 84.3718 125.196 84.5168 124.471Z" fill="#F2F2F2"/>
<path d="M86.8159 126.346C86.9519 127.916 87.4239 129.451 88.0569 130.909C87.0649 129.582 86.6239 127.946 86.8159 126.346Z" fill="#F2F2F2"/>
<path d="M76.949 107.588C77.213 104.533 78.461 100.822 80.14 97.6953C78.66 101.153 78.297 104.37 78.114 107.986C77.832 110.816 77.522 115.171 78.334 118.251C78.437 118.736 78.69 119.622 78.704 119.88C78.55 119.538 78.427 119.271 78.284 118.955C77.402 117.339 76.971 115.391 76.78 113.482C76.561 111.523 76.523 109.524 76.949 107.588Z" fill="#F2F2F2"/>
<path d="M130.343 111.041C130.779 111.745 130.94 112.563 131.317 113.292C131.844 114.206 132.433 115.092 132.84 116.06C132.333 115.078 131.62 114.206 131.051 113.258C130.659 112.541 130.489 111.727 130.03 111.042C129.232 110.056 128.131 109.636 127.242 108.699C128.226 109.534 129.587 109.987 130.343 111.041Z" fill="#F2F2F2"/>
<path d="M117.87 103.666C118.09 103.488 118.294 103.291 118.533 103.133C119.054 102.779 119.764 103.132 120.282 103.146C120.996 103.189 121.585 103.623 122.234 103.86C122.815 104.139 123.479 104.214 124.056 104.497C124.616 104.74 124.882 105.266 125.197 105.724C125.715 106.599 126.532 107.279 127.302 107.964C126.539 107.416 125.748 106.871 125.144 106.168C124.811 105.782 124.569 105.359 124.158 105.048C123.418 104.647 122.515 104.627 121.774 104.213C121.2 103.978 120.699 103.592 120.06 103.52C119.645 103.454 119.265 103.182 118.834 103.235C118.634 103.211 117.472 103.977 117.87 103.666Z" fill="#F2F2F2"/>
<path d="M116.438 102.159C115.508 100.538 114.834 98.7899 114.619 96.9609C115.234 98.6919 115.94 100.394 116.438 102.159Z" fill="#F2F2F2"/>
<path d="M114.944 100.809C114.211 99.6573 113.682 98.4103 113.346 97.1133C113.992 98.3453 114.502 99.4843 114.944 100.809Z" fill="#F2F2F2"/>
<path d="M88.3909 121.41C88.4669 120.597 89.1559 119.785 89.4909 119.177C89.6279 118.864 89.5739 118.501 89.5359 118.11C89.4999 117.743 89.1169 116.384 89.7079 115.787C90.2289 115.084 91.1089 114.745 91.8929 114.348C92.6229 114.043 93.2569 113.607 93.9279 113.213C95.0429 112.719 96.2009 112.259 97.2899 111.39C98.1109 110.511 98.7469 109.483 99.4049 108.496C98.7229 109.781 98.2079 111.256 97.0089 112.219C96.1469 112.875 95.5079 113.292 94.3919 113.941C94.1059 114.128 93.6439 114.578 93.2399 114.813C92.1719 115.52 90.6139 115.944 90.4649 116.799C90.4319 117.455 90.7959 118.907 90.1579 119.685C89.6829 120.311 89.4819 120.393 89.0949 121.03C88.6189 121.981 88.4869 123.039 88.5429 124.077C88.3219 123.208 88.1949 122.294 88.3909 121.41Z" fill="#F2F2F2"/>
<path d="M90.3856 123.207C90.0996 124.31 89.7766 125.594 90.4396 126.631C89.4816 125.694 89.8316 124.253 90.3856 123.207Z" fill="#F2F2F2"/>
<path d="M90.6537 136.98C90.8947 137.583 90.8117 138.237 90.9427 138.855C91.1467 139.452 91.7487 139.842 92.0647 140.387C92.4737 141.114 93.2907 141.508 93.9967 141.956C93.6207 141.816 93.2417 141.68 92.8827 141.506C92.3227 141.281 91.9087 140.884 91.5567 140.436C91.2207 140.05 90.7807 139.735 90.5317 139.291C90.2227 138.728 90.3997 138.08 90.3167 137.478C90.2217 136.41 89.5267 135.495 88.6597 134.817C89.5557 135.317 90.3437 136.04 90.6537 136.98Z" fill="#F2F2F2"/>
<path d="M110.788 106.112C111.944 105.837 113.09 106.326 114.005 106.947C114.322 107.128 114.605 107.194 115.047 107.288C116.265 107.636 117.074 107.232 118.447 107.326C119.527 107.481 119.916 107.527 120.947 107.636C121.993 107.797 122.91 108.392 123.584 109.129C124.114 109.676 124.532 110.311 124.826 110.991C124.165 110.037 123.235 109.213 122.13 108.706C121.439 108.395 120.747 108.369 119.974 108.39C119.242 108.382 118.514 108.249 117.783 108.306C117.442 108.345 117.375 108.36 117.291 108.372C116.305 108.584 115.286 108.441 114.338 108.147C113.492 107.923 112.844 107.212 112.217 106.971C111.384 106.627 110.562 106.766 109.729 107.109C108.644 107.486 107.55 107.841 106.461 108.208C107.886 107.494 109.25 106.604 110.788 106.112Z" fill="#F2F2F2"/>
<path d="M123.16 114.101C122.581 113.248 121.955 112.403 121.124 111.741C122.12 112.239 122.806 113.123 123.16 114.101Z" fill="#F2F2F2"/>
<path d="M166.521 131.946C167.116 131.885 167.315 131.925 167.803 131.768C167.825 131.758 167.868 131.738 167.889 131.73C168.029 131.685 168.788 131.163 168.582 131.309C169.332 130.761 170.052 130.394 170.336 129.419C170.67 128.424 170.638 127.448 170.474 126.636C170.25 125.079 169.86 123.549 169.374 122.045C170.637 124.539 172.274 127.574 171.018 130.312C170.434 131.311 169.132 132.037 168.018 132.462C167.522 132.583 167.007 132.529 166.501 132.514C166.097 132.54 165.693 132.512 165.297 132.435C164.493 132.177 163.816 131.575 163.426 130.885C164.178 131.755 165.319 132.257 166.521 131.946Z" fill="#F2F2F2"/>
<path d="M174.228 131.231C174.727 130.992 175.325 130.833 175.678 130.407C176.169 129.632 176.42 128.49 176.622 127.489C176.773 126.41 176.604 124.976 176.117 124.123C175.642 123.07 174.507 121.987 173.679 120.992C175.978 122.677 177.807 124.44 177.523 127.344C177.298 128.56 176.946 129.857 176.08 130.826C175.445 131.345 174.546 131.454 173.753 131.657C173.359 131.741 172.96 131.864 172.552 131.792C173.154 131.76 173.677 131.43 174.228 131.231Z" fill="#F2F2F2"/>
<path d="M161.37 129.607C161.871 129.317 162.438 129.104 162.861 128.713C163.564 128.08 164.007 127.27 164.22 126.401C164.958 124.074 164.724 121.811 164.188 119.457C165.093 121.511 165.753 123.756 165.117 125.957C164.718 128.025 163.386 129.334 161.172 129.83C160.978 129.871 160.792 129.943 160.593 129.962C160.863 129.868 161.115 129.732 161.37 129.607Z" fill="#F2F2F2"/>
<path d="M108.809 173.512C109.242 173.057 109.585 172.787 109.893 172.328C110.444 171.484 110.423 170.466 110.499 169.517C110.547 168.499 110.447 167.48 110.046 166.524C109.568 165.619 108.796 164.872 108.073 164.128C108.937 164.723 109.809 165.361 110.429 166.183C111.038 167.134 111.27 168.263 111.257 169.358C111.204 170.409 111.091 171.542 110.447 172.441C109.839 173.158 109.127 173.617 108.297 174.059C108.141 174.133 107.985 174.207 107.821 174.264C108.177 174.043 108.481 173.786 108.809 173.512Z" fill="#F2F2F2"/>
<path d="M101.935 172.277C103.384 171.695 104.067 170.221 104.735 168.992C105.073 168.215 104.974 167.18 104.898 166.302C104.557 164.936 103.956 163.595 103.11 162.427C105.225 164.399 106.848 167.809 104.791 170.281C104.162 171.113 103.189 172.292 101.775 172.487C101.558 172.53 101.341 172.578 101.119 172.598C101.423 172.504 101.661 172.407 101.935 172.277Z" fill="#F2F2F2"/>
<path d="M76.4426 153.522C77.2036 151.942 78.3836 150.276 78.8346 148.695C78.9436 148.017 78.9646 147.265 78.9356 146.554C78.9006 145.963 78.6966 145.399 78.4976 144.84C78.5256 144.888 78.5536 144.935 78.5826 144.983C79.4176 146.271 79.6756 147.858 79.5056 149.336C79.1356 150.799 78.2426 152.808 77.7586 153.945C79.1126 153.625 80.4716 153.319 81.8666 153.166C83.1696 153.041 84.4806 153.158 85.7866 153.173C88.9386 153.359 91.9746 154.367 94.9636 155.249C90.9086 154.658 86.9226 154.073 82.6666 154.482C81.8596 154.567 80.2026 154.86 78.8466 155.179C78.1886 155.343 77.5126 155.474 76.8396 155.562C75.5156 155.484 75.9676 154.215 76.4426 153.522Z" fill="#F2F2F2"/>
<path d="M57.922 138.66C59.113 140.198 59.102 143.641 59.224 144.749C59.493 146.727 60.014 148.843 60.1 151.89C60.426 153.248 61.251 154.661 62.238 155.888C63.065 157.05 63.831 158.247 64.659 159.409C63.576 158.361 62.579 157.243 61.545 156.155C60.099 154.75 58.815 153.011 58.693 151.027C58.537 149.312 58.06 147.653 57.829 145.223C57.746 143.545 57.847 141.336 57.597 139.94C57.492 139.112 56.852 138.477 56.366 137.766C55.76 136.996 55.253 136.383 54.521 135.674C55.792 136.523 56.935 137.537 57.922 138.66Z" fill="#F2F2F2"/>
<path d="M55.9319 141.137C53.3989 139.684 50.6219 138.626 47.9209 137.466C50.8649 138.025 53.7589 139.195 55.9319 141.137Z" fill="#F2F2F2"/>
<path d="M53.8425 141.986C51.3925 141.52 48.9645 140.958 46.5195 140.481C49.0445 140.423 51.5485 141.047 53.8425 141.986Z" fill="#F2F2F2"/>
<path d="M32.6647 142.817C35.8157 143.497 39.6077 143.108 43.0617 143.498C46.2667 143.939 49.5167 144.56 52.3677 146.032C54.1827 147.229 55.6647 148.807 57.1377 150.338C55.3667 149.076 53.4917 147.518 51.4797 146.645C47.8717 145.496 44.3667 145.128 41.3657 144.705C38.5787 144.571 35.7757 144.244 33.0997 143.498C31.9007 143.15 30.9067 142.42 30.1187 141.534C30.8797 142.096 31.7047 142.604 32.6647 142.817Z" fill="#F2F2F2"/>
<path d="M21.7079 88.5349C24.1869 88.3619 26.7089 88.3359 29.1849 88.5589C30.4779 88.7709 31.7199 89.1919 32.9779 89.5279C34.5749 89.9369 36.1979 90.2849 37.7409 90.8509C40.1019 91.8479 42.4299 92.9279 44.6739 94.1329C46.5439 95.3319 48.4209 96.5549 50.1539 97.9179C52.7359 100.743 54.7619 104.004 56.5059 107.318C56.3009 107.039 56.0999 106.756 55.8929 106.478C54.3699 104.594 52.8659 102.805 51.0879 100.958C49.6559 99.3839 48.7929 98.6899 46.8749 97.7349C43.7349 95.7539 40.2179 94.4199 36.7659 92.9769C36.5269 92.8849 32.5809 91.8189 31.1479 91.3439C28.5979 90.3919 26.9799 90.4259 23.9599 90.2209C21.5339 89.9669 20.0759 90.3199 17.5609 90.8639C14.3529 91.5929 11.2779 92.8129 8.66992 94.7009C12.2679 91.3349 16.7889 89.5009 21.7079 88.5349Z" fill="#F2F2F2"/>
<path d="M54.6618 108.269C55.7779 109.888 56.7338 111.879 56.8748 113.682C56.2708 111.844 55.1588 110.251 54.0568 108.641C52.9618 106.93 51.9908 105.12 50.4438 103.706C52.2758 104.843 53.5279 106.558 54.6618 108.269Z" fill="#F2F2F2"/>
<path d="M56.562 119.683C56.261 118.075 55.491 116.574 54.917 115.038C54.244 113.228 53.472 111.457 52.459 109.783C54.833 112.589 56.367 116.124 56.562 119.683Z" fill="#F2F2F2"/>
<path d="M31.9039 138.688C33.1269 137.121 35.5979 136.597 37.3259 136.079C38.4409 135.586 39.3849 134.832 40.3759 134.162C41.8829 133.198 44.9789 131.315 45.6869 130.776C47.2419 129.62 49.2619 127.563 50.0119 126.647C50.9659 125.135 51.5709 123.579 52.0039 121.524C52.3479 119.307 52.0759 116.655 51.4229 114.37C53.3279 118.433 53.6629 123.156 51.5829 127.218C50.5699 128.783 49.1899 130.161 47.7689 131.423C45.9649 132.887 43.8199 133.931 41.7369 135.015C40.5219 135.642 39.3819 136.406 38.0759 136.872C36.2439 137.393 34.1569 137.29 32.4969 138.374C32.1469 138.599 31.8369 138.872 31.5649 139.174C31.6699 139.007 31.7759 138.84 31.9039 138.688Z" fill="#F2F2F2"/>
<path d="M54.2158 151.865C56.2508 153.266 57.4588 156.083 55.7368 158.1C55.5328 158.355 55.3098 158.599 55.0618 158.82C55.2268 158.594 55.3728 158.357 55.5088 158.115C56.7698 156.061 55.7908 153.527 54.2158 151.865Z" fill="#F2F2F2"/>
<path d="M56.2529 151.115C57.1779 152.063 57.9929 153.122 58.2789 154.392C58.4709 155.151 58.6299 155.994 58.1969 156.708C58.4409 155.987 58.1849 155.251 57.9539 154.557C57.5959 153.324 56.9639 152.204 56.2529 151.115Z" fill="#F2F2F2"/>
<path d="M14.4939 129.665C14.2659 131.728 13.4319 133.643 12.2329 135.387C12.9969 133.482 13.7979 131.592 14.4939 129.665Z" fill="#F2F2F2"/>
<path d="M15.818 132.101C15.165 133.579 14.239 134.932 13.041 136.088C13.93 134.739 14.838 133.397 15.818 132.101Z" fill="#F2F2F2"/>
<path d="M16.7347 134.256C16.0467 135.068 15.2747 135.824 14.3667 136.432C15.1007 135.657 15.8717 134.911 16.7347 134.256Z" fill="#F2F2F2"/>
<path d="M11.1326 90.3232C8.78856 92.9802 6.62657 95.8092 4.95557 98.8742C5.85857 95.4632 8.18456 92.5052 11.1326 90.3232Z" fill="#F2F2F2"/>
<path d="M7.56797 88.7314C6.97597 89.7674 6.26196 90.7404 5.43896 91.6344C6.03096 90.5974 6.74597 89.6254 7.56797 88.7314Z" fill="#F2F2F2"/>
<path d="M3.90078 105.498C4.16478 109.572 6.05478 113.344 7.15878 117.257C5.09777 113.659 3.23578 109.649 3.90078 105.498Z" fill="#F2F2F2"/>
<path d="M43.6517 67.8477C45.9187 68.3737 48.1687 68.9867 50.2737 69.9317C51.6987 70.5697 53.2497 71.6207 54.2887 72.3507C57.0597 74.2037 59.6937 76.2407 61.7927 78.7497C62.3917 79.4507 63.0077 80.1397 63.5567 80.8747C62.7807 80.1057 61.9517 79.3837 61.1277 78.6597C59.1797 76.9127 57.0487 75.4337 54.7667 74.0747C53.0247 73.0147 51.3557 71.8387 49.5237 70.9117C47.5367 69.9047 45.7357 69.2797 43.3947 68.5267C40.8647 67.5797 38.2447 66.8827 35.5767 66.3447C38.3197 66.6067 41.0167 67.1027 43.6517 67.8477Z" fill="#F2F2F2"/>
<path d="M9.99358 78.1075C10.8206 76.6225 11.3636 74.9595 12.7656 73.8195C14.0256 72.6535 14.7056 72.4885 15.7546 71.4875C16.8176 70.5695 18.2186 70.1785 19.1706 69.3535C20.5016 68.3675 22.2516 68.2045 23.7616 67.5625C22.5896 68.3155 21.1446 68.6365 20.0426 69.4955C19.4946 69.8835 19.1016 70.4305 18.5086 70.7695C17.8306 71.2165 17.1936 71.5535 16.6396 72.0325C15.7846 72.9465 14.4386 73.6455 13.7196 74.1865C12.4316 75.0545 11.5656 76.2415 10.7366 77.4735C10.3616 77.9745 9.95959 78.4615 9.47559 78.8785C9.66059 78.6275 9.84358 78.3765 9.99358 78.1075Z" fill="#F2F2F2"/>
<path d="M25.1539 69.9055C26.2639 69.1125 27.4639 68.8525 28.6259 68.0605C29.9859 67.4845 31.5249 67.9195 32.9289 68.1235C31.6439 68.1255 30.2829 67.9045 29.0539 68.3375C28.5879 68.5105 28.2349 68.8555 27.7899 69.0625C27.0169 69.3895 26.1679 69.5425 25.4199 69.9285C25.1269 70.0605 24.8379 70.1985 24.5479 70.3335C24.7489 70.1905 24.9479 70.0445 25.1539 69.9055Z" fill="#F2F2F2"/>
<path d="M74.1485 14.1889C74.2065 14.4059 74.2245 14.6299 74.2655 14.8499C74.2685 14.8659 74.2725 14.8899 74.2755 14.9139C74.6765 16.5079 74.5435 18.1539 74.4165 19.7719C74.3815 20.1819 74.3395 20.5919 74.2985 21.0019C74.2045 20.1009 74.0515 18.6009 73.9725 17.9919C73.8225 17.1059 73.8145 16.2639 73.5055 15.4149C73.3075 14.2729 72.8415 13.2089 72.4055 12.1319C71.1195 8.63493 68.8435 5.66994 66.2065 2.96094C69.9475 5.92394 72.8775 9.77293 74.1485 14.1889Z" fill="#F2F2F2"/>
<path d="M67.849 8.14841C68.889 9.79141 69.666 11.6424 69.644 13.5664C69.351 11.7774 68.475 10.1364 67.614 8.52942C67.003 7.43542 66.402 6.31241 65.438 5.44141C66.48 6.14141 67.199 7.14041 67.849 8.14841Z" fill="#F2F2F2"/>
<path d="M61.9759 3.87247C62.1439 3.44047 62.2349 2.94348 62.6049 2.61148C63.2229 2.19248 64.0289 2.06246 64.7629 1.89746C64.2649 2.06546 63.7879 2.26146 63.3129 2.49646C63.0849 2.61746 62.8259 2.73346 62.7209 2.97046C62.4199 3.93146 62.1479 5.09547 62.0429 5.86447C62.0619 7.11647 62.1439 7.59648 62.4589 8.77548C62.9259 10.0045 63.3229 11.2545 63.6639 12.5185C63.3289 11.8875 63.0359 11.2395 62.7009 10.6095C61.9369 9.21747 61.2799 7.73848 61.3499 6.14948C61.3819 5.35848 61.7149 4.61647 61.9759 3.87247Z" fill="#F2F2F2"/>
<path d="M63.8958 4.4668C63.8228 6.0538 64.2618 7.6208 65.0158 8.9938C65.6578 10.2028 66.4318 11.3588 66.5628 12.7348C66.6098 13.1778 66.8888 14.3558 66.5358 13.2378C66.1238 11.7238 65.4058 10.6998 64.6378 9.36481C63.8508 7.84081 63.5388 6.1328 63.8958 4.4668Z" fill="#F2F2F2"/>
<path d="M66.177 29.7266C67.027 27.6306 67.188 25.8166 67.182 23.6086C67.383 21.1926 66.713 18.8026 65.919 16.5166C68.202 20.6206 68.937 25.8726 66.339 29.9986C66.085 30.3996 65.8 30.7846 65.48 31.1436C65.755 30.6896 65.984 30.2136 66.177 29.7266Z" fill="#F2F2F2"/>
<path d="M69.6758 16.0723C70.6558 18.7643 71.5678 21.8073 69.8708 24.4293C70.9358 21.6993 70.1228 18.8333 69.6758 16.0723Z" fill="#F2F2F2"/>
<path d="M66.882 33.2598C64.539 36.2978 60.78 37.8978 57.314 39.6168C60.24 37.2468 64.008 35.7548 66.882 33.2598Z" fill="#F2F2F2"/>
<path d="M88.0029 113.183C87.0349 113.887 86.3009 114.83 85.4459 115.644C84.5989 116.518 83.6609 117.358 83.1069 118.427C83.8369 116.189 85.8989 114.391 88.0029 113.183Z" fill="#404040"/>
<path d="M86.8001 111.522C85.9681 112.424 85.2851 113.422 84.5781 114.408C84.0821 115.077 83.5401 115.73 83.2661 116.511C83.6571 114.526 85.1741 112.813 86.8001 111.522Z" fill="#404040"/>
<path d="M85.9578 109.918C84.8768 111.595 83.2998 113.064 82.7358 114.979C82.8258 112.915 84.5208 111.351 85.9578 109.918Z" fill="#404040"/>
<path d="M85.2958 108.48C84.3658 109.833 83.4558 111.232 82.7388 112.687C83.0608 111.097 84.0628 109.617 85.2958 108.48Z" fill="#404040"/>
<path d="M84.4541 106.654C83.7181 108.042 83.1951 109.512 82.4561 110.898C82.8241 109.38 83.3961 107.887 84.4541 106.654Z" fill="#404040"/>
<path d="M83.4918 105.77C83.0388 106.707 82.7328 107.693 82.2998 108.637C82.4788 107.613 82.8168 106.615 83.4918 105.77Z" fill="#404040"/>
<path d="M114.83 92.9912C113.62 94.3102 112.55 95.7782 111.408 97.1102C111.726 96.2232 113.507 93.9572 114.83 92.9912Z" fill="#404040"/>
<path d="M114.469 90.9443C113.234 92.2723 112.083 93.6903 111.098 95.1853C111.69 93.4953 112.942 92.0153 114.469 90.9443Z" fill="#404040"/>
<path d="M114.529 88.2891C113.712 89.7571 112.548 91.0301 111.378 92.2691C112.215 90.8091 113.411 89.5661 114.529 88.2891Z" fill="#404040"/>
<path d="M114.709 86.9062C113.634 87.9733 112.611 89.0922 111.685 90.2722C112.297 88.8992 113.392 87.7473 114.709 86.9062Z" fill="#404040"/>
<path d="M93.9078 117.024C95.9058 115.555 98.3498 114.607 99.9728 112.73C98.4938 115.271 95.8558 116.372 94.0158 118.009C93.3358 118.685 92.9698 119.774 93.1008 120.772C93.1508 121.392 93.5268 121.951 93.5128 122.581C93.5368 122.969 93.2658 123.296 93.1528 123.657C93.1868 123.435 93.2278 123.214 93.2878 122.997C93.3778 122.489 93.0748 122.003 92.8348 121.564C92.0418 120.062 92.4588 118.064 93.9078 117.024Z" fill="#404040"/>
<path d="M91.4758 128.276C91.2628 131.357 93.1398 134.078 93.4708 137.095C92.3908 134.25 90.5528 131.379 91.4758 128.276Z" fill="#404040"/>
<path d="M95.3352 131.856C94.1692 130.168 93.3842 128.291 93.2852 126.281C93.8302 128.183 94.6322 130.001 95.3352 131.856Z" fill="#404040"/>
<path d="M144.226 115.914C144.825 115.556 145.354 115.06 146.017 114.66C146.692 114.333 147.357 113.986 148.024 113.644C148.853 113.345 149.752 113.242 150.621 113.08C151.413 112.947 152.191 112.699 152.996 112.655C154.294 112.816 155.604 113.119 156.78 113.657C155.549 113.327 154.242 113.203 152.964 113.187C152.234 113.344 151.533 113.603 150.805 113.769C149.974 113.97 149.062 114.079 148.267 114.306C147.117 114.821 145.848 115.238 144.747 115.894C144.301 116.114 143.808 116.232 143.365 116.455C143.624 116.238 143.939 116.095 144.226 115.914Z" fill="#404040"/>
<path d="M144.855 117.987C146.213 117.135 147.581 116.266 149.198 115.887C147.756 116.525 146.642 117.409 145.387 118.141C144.501 118.506 143.439 119.197 142.659 119.429C143.434 119.005 144.01 118.369 144.855 117.987Z" fill="#404040"/>
<path d="M136.241 119.783C136.725 119.539 137.276 119.405 137.827 119.373C138.061 119.355 138.285 119.296 138.483 119.178C139.833 118.575 141.076 118.147 142.484 117.545C141.341 118.275 140.138 118.909 138.915 119.515C138.597 119.708 138.256 119.866 137.869 119.884C137.277 119.947 136.562 119.997 136.162 120.384C136.213 120.884 136.849 121.356 136.892 121.932C136.929 122.094 136.951 122.259 136.962 122.424C136.882 122.163 136.78 121.905 136.637 121.667C136.389 121.225 135.832 120.926 135.741 120.417C135.728 120.131 136.004 119.921 136.241 119.783Z" fill="#404040"/>
<path d="M166.714 115.998C167.519 116.885 168.114 117.973 168.39 119.102C167.404 117.151 166.011 115.597 164.116 114.4C165.037 114.847 166.008 115.274 166.714 115.998Z" fill="#404040"/>
<path d="M155.079 121.767C155.182 121.101 155.846 119.957 156.043 119.651C155.872 120.377 155.521 121.066 155.427 121.807C155.412 122.901 155.875 123.966 156.531 124.862C155.653 124.061 154.987 122.931 155.079 121.767Z" fill="#404040"/>
<path d="M154.978 119.488C154.74 120.691 154.67 121.915 154.594 123.134C154.35 121.913 154.456 120.637 154.978 119.488Z" fill="#404040"/>
<path d="M153.922 119.488C153.881 120.581 153.864 121.674 153.891 122.768C153.589 121.684 153.616 120.568 153.922 119.488Z" fill="#404040"/>
<path d="M153.051 119.718C153.091 120.726 153.07 121.735 153.11 122.742C152.809 121.754 152.852 120.718 153.051 119.718Z" fill="#404040"/>
<path d="M151.995 120.061C152.08 120.84 152.155 121.623 152.304 122.38C151.956 121.645 151.894 120.849 151.995 120.061Z" fill="#404040"/>
<path d="M150.876 120.288C150.975 121.122 151.221 121.954 151.551 122.735C151.015 122.039 150.771 121.135 150.876 120.288Z" fill="#404040"/>
<path d="M61.2277 142.198C61.1947 141.731 61.0987 141.24 60.9897 140.708C61.4217 141.604 61.6517 142.556 61.8527 143.514C62.4427 145.244 62.0187 147.811 62.3477 149.115C62.6787 149.854 63.1547 150.534 63.4167 151.298C63.7247 152.35 63.8837 153.438 64.4077 154.433C65.1227 156.009 66.4977 157.49 67.6137 158.865C65.3677 157.063 63.1317 154.974 62.5297 152.186C62.2747 151.161 61.5567 150.39 61.1977 149.289C60.9587 147.924 61.3238 146.545 61.3408 145.173C61.4338 144.181 61.2517 143.191 61.2277 142.198Z" fill="#404040"/>
<path d="M58.4137 135.64C57.3107 133.769 55.4977 132.373 53.9897 130.787C55.8777 132.007 57.7467 133.539 58.4137 135.64Z" fill="#404040"/>
<path d="M47.6949 104.22C49.3759 106.577 50.7529 109.308 50.5789 112.187C50.5569 112.438 50.5199 112.688 50.4909 112.939C50.4489 112.566 50.4359 112.19 50.3609 111.821C49.9779 109.716 48.9539 107.828 47.9619 105.922C47.0959 104.447 46.4289 102.711 45.0039 101.614C46.1959 102.144 46.9279 103.27 47.6949 104.22Z" fill="#404040"/>
<path d="M36.4992 130.505C37.7602 129.896 39.1722 129.62 40.4752 129.099C43.1532 128.526 45.1322 125.614 47.0442 123.821C48.4312 121.628 48.4462 118.581 48.1372 115.927C49.1422 119.126 49.7202 123.247 46.8912 125.801C46.3202 126.56 44.3612 128.835 42.8062 129.574C41.8042 130.076 40.6552 130.23 39.5722 130.531C38.5842 130.764 37.4762 130.89 36.5772 131.256C35.3102 131.689 33.9302 133.009 33.1812 133.592C34.0992 132.414 35.0772 131.2 36.4992 130.505Z" fill="#404040"/>
<path d="M48.4157 113.205C48.0987 111.951 47.1747 110.776 46.5207 110.058C45.4757 108.742 44.5717 107.275 44.2217 105.665C45.2517 108.291 48.3697 110.424 48.4157 113.205Z" fill="#404040"/>
<path d="M40.0232 126.372C41.7302 125.042 43.1852 123.298 43.8272 121.519C44.0872 120.748 43.8372 119.643 44.0362 118.652C44.0902 117.794 44.7252 116.984 45.0672 116.298C45.4602 114.744 45.3362 112.981 44.8082 111.426C45.6832 112.941 46.0942 114.753 45.8782 116.462C45.6292 117.292 45.0982 117.977 45.1072 118.739C44.9922 119.834 45.3672 120.977 44.9192 122.029C44.3782 123.415 43.4002 124.597 42.2102 125.568C41.1892 126.549 39.9072 127.226 38.4582 127.504C37.8592 127.651 37.2582 127.796 36.6602 127.947C37.7722 127.406 38.9812 127.027 40.0232 126.372Z" fill="#404040"/>
<path d="M40.894 114.307C40.082 115.633 39.128 116.894 37.876 117.901C38.868 116.613 39.756 115.486 40.894 114.307Z" fill="#404040"/>
<path d="M11.6569 97.3181C12.7129 96.6041 13.1069 96.2251 14.2099 95.5091C16.4319 94.4291 19.2669 94.6081 21.7089 94.7721C19.9159 94.8831 18.1379 95.1691 16.4089 95.6191C15.7399 95.7671 15.0299 96.0731 14.6399 96.4031C13.7439 97.1861 12.1649 98.4761 11.5199 98.8771C9.58987 100.502 8.99087 103.142 8.91587 105.665C8.87087 106.766 8.95787 107.866 9.02887 108.964C8.86187 108.373 8.69387 107.782 8.55987 107.184C7.51987 103.182 8.55587 98.8931 11.6569 97.3181Z" fill="#404040"/>
<path d="M3.60192 93.5127C2.95292 95.7947 2.11292 98.0407 1.75992 100.385C1.50892 97.9637 2.42592 95.6377 3.60192 93.5127Z" fill="#404040"/>
<path d="M27.3418 72.601C29.9298 72.19 32.5938 72.205 35.1498 72.782C32.6898 72.689 30.2478 72.941 27.8008 73.139C26.1658 73.354 24.3858 73.2851 22.8848 73.9781C24.1338 73.0751 25.8278 72.907 27.3418 72.601Z" fill="#404040"/>
<path d="M26.678 76.9741C23.958 77.3001 21.22 77.4901 18.479 77.5801C21.158 76.9431 23.924 76.7511 26.678 76.9741Z" fill="#404040"/>
<path d="M20.765 74.7197C18.095 76.7527 15.627 79.0087 13.292 81.3607C15.063 78.5687 17.602 76.1707 20.765 74.7197Z" fill="#404040"/>
<path d="M18.482 81.0742C16.531 82.4332 14.335 83.4352 12.019 84.1502C14.101 83.0012 16.284 82.0182 18.482 81.0742Z" fill="#404040"/>
<path d="M67.0967 37.6654C67.8287 36.5634 68.2457 35.2974 69.0557 34.2444C69.3937 33.8794 69.4747 33.3394 69.6797 32.8564C70.9517 30.5564 71.0957 27.9574 71.7717 25.4834C71.4477 27.5624 71.5217 29.7214 70.8717 31.7444C70.5417 32.4164 70.2977 33.1034 70.0557 33.8174C69.9357 34.2194 69.6547 34.5414 69.3757 34.8604C68.6527 35.9794 67.9157 37.0854 67.0057 38.0884C66.9157 38.1994 66.7047 38.4624 66.5747 38.6204C66.7437 38.2994 66.9127 37.9784 67.0967 37.6654Z" fill="#404040"/>
<path d="M42.0038 41.3154C43.0028 41.1714 43.9738 41.4494 44.9428 41.6224C45.6948 41.6754 46.7898 41.7744 47.6288 42.0494C48.7718 42.2804 50.3548 42.0154 51.7218 42.0984C53.2968 42.0784 54.8598 42.0324 56.4008 41.7854C58.3638 41.6764 60.3658 41.2774 61.9788 40.1914C60.3728 41.5214 58.2498 42.0174 56.1768 42.3564C53.7238 43.0084 51.7458 43.0134 49.3288 43.1794C47.7368 43.3574 46.2968 42.6144 44.7478 42.4264C43.6658 42.1144 42.5858 41.6574 41.4218 41.8094C40.6748 41.8784 39.9498 42.0744 39.2378 42.2864C40.0998 41.8454 41.0138 41.4324 42.0038 41.3154Z" fill="#404040"/>
<path d="M54.0011 38.4102C55.8061 37.6382 57.7711 37.1263 59.3681 35.9893C57.9471 37.3363 56.0231 38.0463 54.2251 38.8553C52.7011 39.0023 50.5971 39.6263 49.4331 39.8263C50.9351 39.2113 52.2941 38.5772 54.0011 38.4102Z" fill="#404040"/>
<path d="M71.5181 85.9362C73.6131 87.7602 75.4841 89.7862 77.3211 91.8282C75.2711 90.1452 73.2721 88.3992 71.4831 86.4772C70.7031 85.7462 70.1521 84.7772 69.2231 84.2012C70.1481 84.5532 70.7691 85.3502 71.5181 85.9362Z" fill="#404040"/>
<path d="M36.5588 71.0026C38.2348 70.7966 40.0658 71.0595 41.5748 71.4575C42.4488 71.5135 43.3628 71.3536 44.1868 71.7106C47.3828 73.6266 50.8558 75.0176 53.6008 77.2186C50.5618 75.3816 46.7508 74.3226 43.8548 72.5206C43.1578 72.2256 42.4958 72.3506 41.7068 72.2696C40.0308 71.9236 38.7528 71.3136 36.9178 71.2646C36.3518 71.2096 35.7838 71.1666 35.2178 71.1136C35.6638 71.0736 36.1118 71.0356 36.5588 71.0026Z" fill="#404040"/>
<path d="M35.9741 76.4175C33.5511 76.5145 31.1531 76.8985 28.7231 76.8795C31.1011 76.3875 33.5451 76.0335 35.9741 76.4175Z" fill="#404040"/>
<path d="M12.495 142.343C13.551 143.696 15.046 144.935 16.308 146.004C17.187 146.717 18.673 147.334 19.939 147.835C22.199 148.784 24.457 149.748 26.619 150.877C23.197 149.693 19.446 149.03 16.339 147.212C14.426 145.732 12.803 143.83 11.839 141.7C11.74 141.485 11.641 141.269 11.542 141.054C11.86 141.482 12.172 141.916 12.495 142.343Z" fill="#404040"/>
</svg>
