<svg width="129" height="103" viewBox="0 0 129 103" fill="none" xmlns="http://www.w3.org/2000/svg">
<path d="M5.97818 97.3151C26.0762 100.559 46.7402 98.5261 66.8782 100.13C78.0422 101.019 89.2892 103.036 100.361 101.354C111.433 99.6721 122.683 93.2931 126.255 82.6791C127.358 79.4031 127.583 75.5181 125.535 72.7331C128.373 66.7841 128.97 60.1331 127.819 53.9721C126.667 47.8101 123.887 42.0651 120.663 36.6901C117.338 31.1481 113.36 25.7651 107.834 22.4121C100.199 17.7791 90.2932 17.6911 82.0542 21.1351C73.8142 24.5791 67.1822 31.2411 62.6542 38.9391C62.5212 35.1231 60.5082 31.6881 57.5672 29.4251C58.5042 19.3881 56.0032 9.31413 50.8472 0.828125C50.1622 1.12212 49.9162 1.94913 49.7572 2.67713C48.6822 7.58113 47.8872 12.5481 46.6452 17.6181C43.2112 16.7161 40.4572 16.5751 36.9092 16.4651C33.8272 16.3701 29.9592 16.7671 26.8492 18.3561C25.6082 14.7451 23.4882 10.2891 21.3512 7.12413C20.5352 5.91513 19.4552 4.63413 17.9982 4.58613C16.5642 10.4821 16.7942 16.6431 17.1482 22.7001C17.1722 23.1121 17.2052 23.5411 17.2822 23.9551C14.9662 26.5831 13.8752 30.1971 13.0872 33.6691C12.5382 36.0861 12.0782 38.5241 11.7082 40.9751C11.5472 42.0431 11.4542 43.2501 11.9502 44.1591C11.9252 44.5001 11.9092 44.8421 11.9132 45.1851C11.9322 46.7001 12.3882 48.1551 13.1282 49.4701C14.1342 51.4441 15.5622 53.1501 16.8312 54.9481C17.3602 55.8121 17.7672 56.7641 18.3972 57.5601C18.9632 58.1971 18.7582 57.8471 19.3732 58.8981C20.2972 60.7531 22.2252 61.7161 23.6152 63.1621C24.7782 63.9141 24.6052 63.8911 25.5102 64.3621C26.1052 64.5801 26.7292 64.6951 27.3442 64.8431C27.4782 64.9141 27.6112 64.9711 27.7442 65.0201C26.5812 72.8251 31.2762 81.1731 38.6022 84.1521C32.7272 82.1541 26.6252 80.1641 20.3202 79.8591C14.0152 79.5541 7.43318 81.0841 2.58318 85.1261C2.55118 85.1531 2.51919 85.1791 2.48719 85.2061C-2.02681 89.0141 0.147185 96.3741 5.97818 97.3151Z" fill="#191919"/>
<path d="M13.9122 50.9199C10.0332 51.3759 6.21223 52.4319 2.62823 53.9799C2.17923 54.1939 1.73023 54.4089 1.28223 54.6249C1.80523 54.4679 2.32323 54.2949 2.84723 54.1439C6.70323 53.0689 10.6472 52.4089 14.6262 52.0229C14.5352 51.5189 14.5542 50.9959 13.9122 50.9199Z" fill="#191919"/>
<path d="M17.3302 46.6468C13.5112 45.8268 9.55419 45.5948 5.66219 45.9038C5.16819 45.9618 4.67418 46.0198 4.18018 46.0798C4.72618 46.0998 5.27218 46.1028 5.81718 46.1288C9.81318 46.3548 13.7602 47.0028 17.6512 47.9208C17.7262 47.4138 17.9132 46.9258 17.3302 46.6468Z" fill="#191919"/>
<path d="M22.0363 53.8742C18.3863 55.2652 14.9403 57.2242 11.8443 59.6022C11.4613 59.9192 11.0783 60.2372 10.6973 60.5572C11.1663 60.2772 11.6253 59.9822 12.0973 59.7072C15.5723 57.7222 19.2363 56.1172 22.9993 54.7692C22.7873 54.3022 22.6783 53.7912 22.0363 53.8742Z" fill="#191919"/>
<path d="M27.0882 57.8757C27.6872 56.7827 28.1201 55.6237 28.4571 54.4337C28.7301 53.2867 28.9701 52.1327 29.0941 50.9567C29.1571 50.7427 29.1011 50.3337 29.1281 49.9517C28.9861 49.7827 28.8681 49.5767 28.7911 49.4067C28.2791 48.6387 27.5412 46.8987 27.3282 46.5217C27.0242 46.0017 26.7022 45.2007 26.6872 44.9207C26.1532 43.5767 27.7722 44.0617 28.4882 44.2257C29.9872 44.4637 31.1611 44.4637 32.6771 44.5607C32.7611 44.5457 32.8551 44.5377 32.9901 44.5637C33.0001 44.5707 33.0052 44.5767 33.0142 44.5837C33.0402 44.5857 33.0652 44.5867 33.0912 44.5887C33.0712 44.5917 33.0501 44.5937 33.0291 44.5967L33.0312 44.5987C33.2962 44.6577 33.1681 44.9037 32.9651 45.2127C32.9561 45.2287 32.9431 45.2427 32.9341 45.2587C32.9071 45.3027 32.8831 45.3477 32.8561 45.3907C32.7521 45.6897 32.6391 45.9847 32.4551 46.2397C32.2941 46.4307 32.1332 46.6217 31.9752 46.8127C31.6062 47.5227 31.1041 48.3087 30.8701 48.6367C30.5851 49.0347 30.4001 49.4937 30.1461 49.9077C30.1761 50.0617 30.2061 50.2157 30.2281 50.3707C30.5131 51.6057 30.7731 52.8917 30.9831 53.9237C31.0321 54.1477 31.0832 54.3937 31.1442 54.6527C31.3582 55.2707 31.5842 55.8857 31.8212 56.4967C31.9392 56.7087 32.0602 56.9197 32.1602 57.1407C32.1022 57.0667 32.0451 56.9927 31.9871 56.9187C32.1711 57.3847 32.3592 57.8497 32.5532 58.3117C32.1262 57.5857 31.6512 56.8817 31.2392 56.1457C31.2402 56.1557 31.2422 56.1667 31.2432 56.1767C31.2372 56.1567 31.2301 56.1367 31.2241 56.1167C30.9881 55.6927 30.7731 55.2587 30.6021 54.8027C30.4111 54.2797 30.2632 53.7447 30.1472 53.2017C30.1102 53.0807 30.0741 52.9597 30.0371 52.8397C30.0021 52.7007 29.9582 52.5607 29.9192 52.4217C29.9122 52.4657 29.9091 52.5097 29.9011 52.5537C29.5811 53.9957 28.7191 55.2297 28.1321 56.5697C27.9621 56.8717 28.0561 56.6727 28.1111 56.4947C27.8191 57.0147 27.4792 57.4817 27.0882 57.8757Z" fill="#F2F2F2"/>
<path d="M49.1611 20.0768C49.1611 19.9978 49.1631 19.9178 49.1651 19.8388C49.2201 20.1568 49.2681 20.4928 49.4371 20.7728C49.9171 21.2598 50.4311 21.4238 50.9061 21.7828C52.2941 22.7638 53.6621 23.8578 54.6251 25.2738C54.6591 24.3288 54.4651 23.2438 54.4701 22.0448C54.4391 20.3828 54.0951 18.7438 54.0851 17.0798C53.9791 15.5988 53.6891 14.9578 53.4211 13.4388C53.0491 10.8478 52.1801 8.77078 51.1961 6.30078C52.5441 8.52378 53.8311 10.8008 54.4711 13.3388C54.9571 14.8218 55.4801 16.3018 55.5531 17.8768C55.7611 19.5298 56.0831 21.1698 56.0011 22.8448C56.0411 23.9578 56.1351 25.0908 55.8581 26.1828C55.3471 28.0348 54.2021 27.2338 53.6771 25.9028C53.2971 25.2038 52.8421 24.5438 52.3091 23.9528C52.0151 23.6438 51.0981 22.5738 50.3561 21.9418C50.0121 21.6028 49.5811 21.3338 49.3121 20.9288C49.1731 20.6698 49.1681 20.3628 49.1611 20.0768Z" fill="#F2F2F2"/>
<path d="M20.4328 20.0614C20.2088 17.4994 20.2328 14.9304 20.2708 12.3604C20.7048 14.9454 21.0628 17.5654 21.1298 20.1864C21.0458 21.8704 20.8078 23.5444 20.5748 25.2124C20.4538 23.4984 20.4638 21.7784 20.4328 20.0614Z" fill="#F2F2F2"/>
<path d="M21.9771 18.4824C22.3121 20.3544 22.3261 22.2634 22.0781 24.1464C21.8821 22.2644 21.9071 20.3704 21.9771 18.4824Z" fill="#F2F2F2"/>
<path d="M25.6709 20.8487C23.9079 17.6267 21.7539 14.6087 20.3809 11.1807C22.4089 14.2067 24.7229 17.3617 25.6709 20.8487Z" fill="#F2F2F2"/>
<path d="M31.8608 18.0084C33.8168 17.7844 35.7998 18.1754 37.7568 18.2974C35.8088 18.5484 33.8438 18.4094 31.8918 18.4474C30.9638 18.7474 30.0758 18.8144 29.1938 19.1794C29.9918 18.6434 30.9468 18.3664 31.8608 18.0084Z" fill="#F2F2F2"/>
<path d="M46.122 19.6016C44.046 18.7416 41.844 18.0976 39.582 18.0866C41.874 17.6076 44.245 18.2406 46.122 19.6016Z" fill="#F2F2F2"/>
<path d="M47.9991 23.191C48.8881 23.675 49.9011 24.097 50.5061 24.945C50.8331 25.576 51.4101 26.395 51.8031 26.769C52.5331 27.509 53.4481 28.072 54.0401 28.945C54.2351 29.261 54.3751 29.607 54.4941 29.957C54.2021 29.438 53.8391 28.96 53.3431 28.621C52.7051 28.096 52.0721 27.863 51.3121 27.217C50.6581 26.723 50.0731 25.822 49.6991 25.283C48.8141 24.461 48.0601 24.228 47.0871 23.54C45.5451 22.414 44.2531 21.652 42.4741 20.668C44.4231 21.268 46.2531 22.149 47.9991 23.191Z" fill="#F2F2F2"/>
<path d="M56.625 30.7852C59.229 32.1282 60.431 34.8052 60.765 37.6032C60.788 37.8302 60.809 38.0572 60.829 38.2842C60.753 38.0362 60.683 37.7862 60.608 37.5372C59.761 35.0342 58.763 32.4732 56.625 30.7852Z" fill="#F2F2F2"/>
<path d="M58.7607 36.7998C59.7577 38.4528 60.4457 40.2638 60.8047 42.1598C60.0317 40.4098 59.3757 38.6108 58.7607 36.7998Z" fill="#F2F2F2"/>
<path d="M62.753 49.3585C62.772 49.4225 62.791 49.4875 62.81 49.5515C62.74 49.4135 62.671 49.2755 62.601 49.1375C61.287 46.5785 60.134 44.2455 58.644 41.5225C60.609 43.7855 61.979 46.4685 62.753 49.3585Z" fill="#F2F2F2"/>
<path d="M61.3539 49.8551C60.4339 48.1731 59.6279 46.5911 58.9609 44.7441C59.9679 46.3411 60.8219 48.0381 61.3539 49.8551Z" fill="#F2F2F2"/>
<path d="M58.5269 47.1045C59.5689 49.0015 60.2728 51.0535 60.5328 53.2055C59.8248 51.1845 59.1249 49.1595 58.5269 47.1045Z" fill="#F2F2F2"/>
<path d="M57.772 48.9277C58.888 51.4497 59.474 54.2067 59.497 56.9637C58.832 54.1927 58.343 51.6917 57.772 48.9277Z" fill="#F2F2F2"/>
<path d="M56.5879 50.6426C57.1959 52.9096 57.3989 55.2566 57.0249 57.5816C56.8819 55.2686 56.6929 52.9586 56.5879 50.6426Z" fill="#F2F2F2"/>
<path d="M55.2998 50.6406C55.8848 53.2666 56.0498 55.9726 55.7178 58.6446C55.4298 55.9856 55.3188 53.3136 55.2998 50.6406Z" fill="#F2F2F2"/>
<path d="M37.8971 42.5311C37.8501 42.4531 37.8181 42.3651 37.8381 42.2741C37.8751 42.1221 37.9661 42.0451 38.0691 42.0171C38.0221 41.9821 37.9731 41.9491 37.9271 41.9141C37.9911 41.9471 38.0581 41.9761 38.1221 42.0091C38.2661 41.9951 38.4181 42.0691 38.4841 42.1851C40.3021 43.0411 42.3101 43.5841 44.2781 43.1371C44.7251 43.1421 46.3021 42.4111 47.1701 42.2791C47.2581 42.2651 47.1351 42.2881 47.1071 42.2941C47.2391 42.2461 47.3881 42.2561 47.5141 42.3161C47.7741 42.4331 47.8921 42.7721 47.7651 43.0271C46.9551 44.2021 44.4961 44.6131 42.4351 44.4401C42.2111 44.4571 41.9861 44.4641 41.7611 44.4421C41.3531 44.3961 40.9641 44.2881 40.5911 44.1391C39.8781 43.9931 39.2261 43.6671 38.6411 43.2181C38.2911 43.0301 37.9601 42.7611 37.8941 42.5341L37.8971 42.5311Z" fill="#F2F2F2"/>
<path d="M19.0121 40.2496C19.1951 40.3036 19.3391 40.4266 19.4761 40.5606C19.6031 40.5476 19.7221 40.6416 19.8181 40.7246C20.1591 40.9146 20.2011 40.9716 20.4931 41.1226C21.2231 41.4666 22.0651 41.6596 22.9371 41.8306C23.1671 41.8126 23.3851 41.7906 23.5951 41.7646C23.8961 41.6646 24.1931 41.5516 24.5091 41.5146C24.6711 41.4956 24.8341 41.4926 24.9971 41.4886C25.0171 41.4866 25.0371 41.4856 25.0571 41.4856C25.0601 41.4856 25.0621 41.4856 25.0651 41.4856C25.1821 41.4866 25.2881 41.5246 25.3491 41.6486C25.4481 41.9516 25.2821 42.0476 25.0501 42.0796C25.0251 42.0996 24.9931 42.1136 24.9431 42.1126C24.8491 42.1356 24.7521 42.1526 24.6561 42.1736C24.7141 42.1866 24.7731 42.1976 24.8311 42.2116C24.7281 42.2076 24.6231 42.2056 24.5191 42.2026C24.4561 42.2146 24.3941 42.2286 24.3301 42.2396C24.4621 42.2646 24.5951 42.2886 24.7231 42.3186C24.4271 42.3116 24.1231 42.3126 23.8161 42.3146C23.7991 42.3166 23.7821 42.3186 23.7651 42.3206C23.7061 42.3336 23.6461 42.3356 23.5861 42.3446C23.5531 42.3496 23.5221 42.3546 23.4841 42.3576C23.0971 42.4096 22.7081 42.3966 22.3201 42.3256C21.7871 42.2766 21.2351 42.1916 20.8641 42.1006C20.2511 41.9356 19.6321 41.7076 19.1451 41.2886C18.9551 41.1086 18.7261 40.9436 18.6341 40.6896C18.5441 40.4566 18.7681 40.1946 19.0121 40.2496Z" fill="#F2F2F2"/>
<path d="M46.9879 63.4346C44.5659 61.9076 42.0469 60.5416 39.6509 58.9736C37.5449 57.5186 35.7609 56.3016 33.6089 54.8936C38.5089 56.9426 43.0919 59.8176 46.9879 63.4346Z" fill="#F2F2F2"/>
<path d="M46.9411 56.3896C50.4591 58.2086 53.7011 60.5896 56.5361 63.3516C56.8791 63.7116 57.2221 64.0726 57.5631 64.4336C57.1311 64.1006 56.7091 63.7536 56.2721 63.4256C49.5031 58.4216 41.7211 54.9786 33.8291 52.1016C38.3211 53.0946 42.7831 54.3956 46.9411 56.3896Z" fill="#F2F2F2"/>
<path d="M27.8541 51.5694C23.3031 50.8944 18.6711 50.5174 14.0751 50.8974C14.0211 50.9034 13.9661 50.9124 13.9121 50.9194C14.5541 50.9964 14.5351 51.5184 14.6281 52.0214C19.0161 51.5954 23.4481 51.5024 27.8541 51.5694Z" fill="#F2F2F2"/>
<path d="M46.3788 51.726C44.3198 51.562 42.2598 51.373 40.2238 51.019C38.4588 50.739 36.7048 50.236 34.9058 50.281C38.7508 49.678 42.6698 50.775 46.3788 51.726Z" fill="#F2F2F2"/>
<path d="M27.1781 49.6222C23.4121 48.9872 19.7791 47.9642 16.2051 46.8252C20.0081 47.3462 23.6711 48.3292 27.1781 49.6222Z" fill="#F2F2F2"/>
<path d="M27.5991 52.9385C24.2431 53.4675 20.9641 54.4185 17.8081 55.7465C21.1621 55.2065 24.4461 54.2765 27.5991 52.9385Z" fill="#F2F2F2"/>
<path d="M82.3789 54.1855C83.8459 52.7815 85.6399 51.7645 87.5979 51.2285C89.1279 50.7015 90.7309 50.4745 92.3379 50.3345C94.3849 50.0715 96.4789 50.0675 98.4979 50.5285C100.025 50.8235 101.582 50.9465 103.102 51.2865C104.738 51.6695 105.734 52.0445 106.786 52.3875C113.583 54.8595 118.976 61.6305 121.127 68.4025C118.053 61.8325 111.602 55.9815 105.971 54.3635C103.541 53.5735 101.019 53.2045 98.5049 52.7985C95.4999 51.9685 93.4839 52.1595 90.1979 52.2905C88.3009 52.5425 86.7179 52.7225 84.6689 53.6905C82.5999 54.7535 80.8109 56.3865 79.0669 57.9385C78.9909 58.0065 78.9149 58.0755 78.8389 58.1435C79.9539 56.7695 81.0799 55.3925 82.3789 54.1855Z" fill="#F2F2F2"/>
<path d="M81.4229 58.6533C79.9189 60.0743 78.4399 61.5203 77.0649 63.0683C76.0369 64.2263 74.9959 65.4353 74.4629 66.9113C75.1539 63.1843 78.4109 60.6123 81.4229 58.6533Z" fill="#F2F2F2"/>
<path d="M79.021 64.7959C77.291 67.6309 75.686 70.5379 74.019 73.4099C75.08 70.2239 76.684 67.2299 79.021 64.7959Z" fill="#F2F2F2"/>
<path d="M78.2148 70.1436C77.4038 72.7726 76.4527 75.4756 75.3438 77.8896C75.9367 75.1836 76.8438 72.5576 78.2148 70.1436Z" fill="#F2F2F2"/>
<path d="M79.914 74.4717C79.566 76.8987 79.094 79.3047 79.245 81.7367C79.322 83.5897 79.975 85.3207 80.609 87.0697C80.709 87.3527 80.817 87.6327 80.919 87.9157C80.792 87.7097 80.663 87.5037 80.539 87.2957C77.595 82.8447 78.172 79.2397 79.914 74.4717Z" fill="#F2F2F2"/>
<path d="M75.6199 90.5038C77.8439 91.2758 81.2749 92.1568 84.3519 93.1268C86.8699 93.7798 89.3219 94.7148 91.9119 95.0538C93.0069 95.2168 93.5429 95.1798 94.9359 95.0408C96.5199 94.9358 98.1079 94.8668 99.6759 94.6048C102.092 94.2038 104.219 92.8078 106.06 91.2528C104.752 92.6538 103.248 93.8968 101.536 94.7728C100.062 95.4748 98.4369 95.7918 96.8439 96.0988C95.1209 96.3348 94.3859 96.6778 92.8389 96.7578C90.7899 96.7928 88.751 96.4748 86.769 95.9688C79.805 94.4818 72.9859 92.3968 66.4799 89.4878C61.438 87.4788 55.6129 85.5788 50.8569 84.8948C59.6779 84.7248 68.1029 88.1058 75.6199 90.5038Z" fill="#F2F2F2"/>
<path d="M21.9868 83.47C26.0088 83.011 30.1198 83.305 34.0158 84.407C35.4138 84.746 37.1738 85.805 38.2748 86.108C39.1588 86.489 40.6848 86.65 41.8158 86.661C43.5868 86.75 45.3538 86.912 47.1098 87.157C45.4168 87.172 43.7248 87.24 42.0358 87.359C40.4788 87.522 38.9228 87.534 37.4128 87.07C36.2598 86.755 35.0948 86.196 34.1338 85.919C29.8428 84.805 25.3458 84.051 21.1728 83.964C20.4168 83.942 19.6588 83.94 18.9028 83.964C19.9218 83.741 20.9508 83.576 21.9868 83.47Z" fill="#F2F2F2"/>
<path d="M5.21078 86.5214C5.69778 83.9384 8.60178 83.4324 10.6498 82.5244C11.9908 82.1284 13.3538 81.7924 14.7298 81.5444C16.7938 81.3554 18.8818 81.4714 20.9438 81.6444C18.9328 81.8084 16.7468 81.9994 14.8548 82.3434C13.4578 82.7404 12.0598 83.1414 10.6698 83.5604C8.81078 84.3444 6.27378 84.3984 5.46278 86.5664C5.27378 86.9764 5.18279 87.4194 5.12579 87.8644C5.09479 87.4144 5.09978 86.9614 5.21078 86.5214Z" fill="#F2F2F2"/>
<path d="M15.6568 85.5732C13.2088 86.2102 10.7568 86.8312 8.29883 87.4262C10.6018 86.2962 13.1108 85.7592 15.6568 85.5732Z" fill="#F2F2F2"/>
<path d="M5.86395 94.2703C7.94695 95.1523 10.299 95.3923 12.557 95.7663C13.163 95.8603 13.7679 95.9603 14.3719 96.0653C13.8939 96.0723 13.415 96.0753 12.937 96.0763C7.99095 96.1163 4.14195 95.6433 2.14795 90.4873C3.00295 92.0483 4.39395 93.3513 5.86395 94.2703Z" fill="#F2F2F2"/>
<path d="M17.0991 93.2602C13.3331 93.8262 9.57012 92.6612 6.24512 90.9502C9.79012 91.9882 13.3941 93.0232 17.0991 93.2602Z" fill="#F2F2F2"/>
<path d="M3.78379 87.0439C3.51379 88.8019 4.55279 90.5699 5.78679 91.7459C4.24679 90.8429 3.06579 88.8129 3.78379 87.0439Z" fill="#F2F2F2"/>
<path d="M16.9221 88.8894C15.0891 89.2194 13.2311 89.3824 11.3691 89.3664C13.2011 89.0334 15.0601 88.8764 16.9221 88.8894Z" fill="#F2F2F2"/>
<path d="M25.8059 96.3115C29.0809 96.4275 32.414 97.2375 35.545 97.9125C32.567 97.8165 29.2229 97.5165 26.4409 97.3195C22.8859 97.1745 19.3069 97.3415 15.7939 96.6575C19.1409 96.8005 22.4639 96.3135 25.8059 96.3115Z" fill="#F2F2F2"/>
<path d="M34.6452 64.6259C35.9312 64.9869 37.0682 65.4499 38.6442 65.7099C39.3412 65.7509 40.0762 65.3569 41.0432 65.6069C42.7392 66.1829 44.5192 66.3889 46.2942 66.1039C45.2962 66.4269 44.2702 66.7019 43.2132 66.6729C42.3892 66.7019 41.3652 66.4359 40.6692 66.3419C39.8492 66.2959 39.1422 66.7399 38.2552 66.5299C36.9082 66.2399 35.6592 65.6539 34.3942 65.1359C33.2772 64.8649 32.1142 64.7579 30.9922 64.7069C32.1962 64.5389 33.4382 64.4419 34.6452 64.6259Z" fill="#F2F2F2"/>
<path d="M35.7809 66.4306C34.0019 66.6606 32.2049 66.6676 30.4189 66.5246C32.1959 66.2806 33.9959 66.2466 35.7809 66.4306Z" fill="#F2F2F2"/>
<path d="M41.193 79.8302C37.891 77.6752 35.281 74.4562 33.939 70.7432C35.987 74.0372 38.512 77.0342 41.193 79.8302Z" fill="#F2F2F2"/>
<path d="M45.6741 81.351C45.6991 81.367 45.723 81.383 45.748 81.4C45.606 81.31 45.6351 81.325 45.6741 81.351Z" fill="#F2F2F2"/>
<path d="M43.7339 80.0605C41.9209 78.1435 40.1879 76.1305 38.7139 73.9385C40.6219 75.8775 42.6429 77.7155 44.7169 79.4755C44.9359 79.5565 45.4809 79.8405 46.0479 80.1525C45.7619 79.4975 45.5449 78.8145 45.4679 78.0975C45.4219 77.8065 45.4179 77.4935 45.6159 77.2545C46.2819 76.4745 47.2579 77.3685 47.9209 77.7235C48.8599 78.2725 49.8539 78.7275 50.8759 79.0975C52.0189 79.5145 53.2039 79.8245 54.4119 79.9815C53.1819 80.0565 51.9449 79.9465 50.7389 79.6965C49.5029 79.5155 47.6819 78.7375 46.7329 78.2955C46.7749 78.4565 46.8259 78.6475 46.8539 78.7065C47.0939 79.3795 47.2559 79.6645 47.4189 79.9725C47.7169 80.5335 48.0689 81.0635 48.3739 81.6205C48.4529 81.8385 48.4039 82.0965 48.2539 82.2725C48.0629 82.4845 47.7499 82.5685 47.4859 82.4505C47.1899 82.3555 46.9309 82.1805 46.6739 82.0075C46.5869 81.9505 46.7199 82.0365 46.7249 82.0405C46.3979 81.8295 46.0729 81.6145 45.7479 81.3995C45.7679 81.4115 45.7789 81.4195 45.8059 81.4365C45.1359 80.9485 44.3239 80.6465 43.7339 80.0605Z" fill="#F2F2F2"/>
<path d="M47.5181 82.4629C47.5451 82.4709 47.5721 82.4799 47.5871 82.4859C47.5631 82.4799 47.5411 82.4699 47.5181 82.4629Z" fill="#F2F2F2"/>
<path d="M47.4577 82.4439C47.4667 82.4479 47.4766 82.4479 47.4856 82.4519C47.4966 82.4549 47.5067 82.4599 47.5177 82.4629C47.4637 82.4459 47.4117 82.4319 47.4577 82.4439Z" fill="#F2F2F2"/>
<path d="M124.018 62.9523C124.166 60.9213 124.324 58.4023 124.541 56.6193C124.422 51.4053 122.28 46.4373 120.038 41.6543C122.706 45.7853 125.254 50.3043 125.7 55.2903C125.735 58.2393 124.816 61.3873 124.215 64.2803C124.086 64.8143 123.945 65.3463 123.808 65.8783C123.88 64.9023 123.946 63.9273 124.018 62.9523Z" fill="#F2F2F2"/>
<path d="M121.834 55.3154C122.617 57.2554 122.334 59.3744 122.013 61.3824C121.906 59.3584 122.209 57.3194 121.834 55.3154Z" fill="#F2F2F2"/>
<path d="M123.186 83.9695C124.219 79.5425 123.099 74.9275 120.894 71.0205C124.058 74.7575 125.393 80.1865 123.195 84.7265C123.069 85.0195 122.934 85.3075 122.804 85.5985C122.935 85.0565 123.088 84.5195 123.186 83.9695Z" fill="#F2F2F2"/>
<path d="M121.398 80.8512C120.788 78.3662 120.148 75.8892 119.523 73.4082C120.686 75.9112 121.692 78.5102 122.069 81.2602C122.2 82.4282 122.517 83.7102 122.149 84.8502C122.265 83.5032 121.663 82.1642 121.398 80.8512Z" fill="#F2F2F2"/>
<path d="M118.262 78.1855C119.526 81.3915 119.683 84.9705 118.537 88.2375C118.931 84.8935 118.833 81.5015 118.262 78.1855Z" fill="#F2F2F2"/>
<path d="M115.979 81.9375C116.795 85.0665 115.751 88.2225 114.662 91.1505C115.094 88.0745 116.134 85.0705 115.979 81.9375Z" fill="#F2F2F2"/>
<path d="M106.69 97.2137C107.554 96.6967 108.498 95.8037 109.06 95.2467C110.589 93.3527 111.687 91.2797 112.551 88.7607C111.892 92.9197 110.067 96.4767 105.858 97.8677C105.71 97.9277 105.563 97.9877 105.415 98.0467C105.84 97.7687 106.263 97.4877 106.69 97.2137Z" fill="#F2F2F2"/>
<path d="M98.0959 98.0627C99.6929 97.6287 101.515 97.4337 102.95 96.7437C104.787 95.7967 106.087 94.1537 107.65 92.8477C103.899 97.8147 103.1 98.0937 96.9549 98.5857C94.5659 98.9707 97.2559 98.2977 98.0959 98.0627Z" fill="#F2F2F2"/>
<path d="M117.092 91.6441C118.369 90.2171 119.696 88.8352 120.977 87.4102C119.854 89.0632 118.63 90.6562 117.269 92.1212C116.114 93.2532 114.984 94.5252 113.453 95.1432C114.915 94.2702 115.908 92.8351 117.092 91.6441Z" fill="#F2F2F2"/>
<path d="M113.455 92.6318C112.877 93.6148 112.221 94.5498 111.481 95.4168C112.055 94.4318 112.718 93.5018 113.455 92.6318Z" fill="#F2F2F2"/>
<path d="M125.918 62.3799C125.611 65.1689 124.862 67.8859 123.716 70.4479C124.434 67.7539 125.206 65.0759 125.918 62.3799Z" fill="#F2F2F2"/>
<path d="M84.7908 22.6943C81.8508 23.7893 79.2248 25.4953 76.5288 27.0693C78.9578 25.0533 81.6758 23.3733 84.7908 22.6943Z" fill="#F2F2F2"/>
<path d="M69.2921 33.7061C67.9551 35.4341 66.4221 37.3681 65.0361 38.8781C66.1641 36.9291 67.5561 35.1501 69.2921 33.7061Z" fill="#F2F2F2"/>
<path d="M50.8989 9.65625C51.3389 10.8472 51.6929 12.0703 51.9059 13.3233C51.4879 12.1253 51.1409 10.9032 50.8989 9.65625Z" fill="#F2F2F2"/>
<path d="M20.818 27.6953C20.142 28.7063 19.388 29.6633 18.584 30.5753C19.173 29.5033 19.933 28.5403 20.818 27.6953Z" fill="#F2F2F2"/>
<path d="M40.535 97.2911C39.203 96.5221 37.98 95.5821 36.854 94.5361C38.159 95.3471 39.363 96.3001 40.535 97.2911Z" fill="#F2F2F2"/>
<path d="M43.0802 96.7642C41.7772 96.0592 40.5802 95.1802 39.4722 94.1992C40.7452 94.9522 41.9342 95.8322 43.0802 96.7642Z" fill="#F2F2F2"/>
<path d="M47.2928 97.7625C45.7698 96.6515 44.3777 95.3755 43.1147 93.9785C44.6217 95.1085 46.0098 96.3835 47.2928 97.7625Z" fill="#F2F2F2"/>
<path d="M50.4362 97.4744C49.1402 96.5954 47.9471 95.5764 46.8691 94.4404C48.1611 95.3254 49.3512 96.3474 50.4362 97.4744Z" fill="#F2F2F2"/>
<path d="M53.4989 97.0125C52.2269 96.2445 51.1549 95.2085 50.1709 94.1055C51.3519 94.9905 52.4169 96.0125 53.4989 97.0125Z" fill="#F2F2F2"/>
<path d="M57.015 97.5543C55.758 96.5253 54.609 95.3723 53.585 94.1113C54.843 95.1393 55.99 96.2953 57.015 97.5543Z" fill="#F2F2F2"/>
<path d="M60.7259 97.6966C59.2089 96.5696 57.8119 95.2906 56.5449 93.8896C58.0589 95.0206 59.4619 96.2926 60.7259 97.6966Z" fill="#F2F2F2"/>
<path d="M45.034 97.0416C43.955 96.1676 42.975 95.1766 42.147 94.0596C43.178 94.9846 44.167 95.9596 45.034 97.0416Z" fill="#F2F2F2"/>
<path d="M38.7699 97.6607C37.4909 96.7287 36.3419 95.6337 35.3179 94.4287C36.5689 95.3927 37.7389 96.4607 38.7699 97.6607Z" fill="#F2F2F2"/>
<path d="M63.05 97.3841C61.385 96.2621 59.864 94.9441 58.564 93.4111C60.134 94.6491 61.655 95.9501 63.05 97.3841Z" fill="#F2F2F2"/>
<path d="M55.1837 96.9922C54.0787 96.0482 53.0727 94.9962 52.1577 93.8662C53.2187 94.8562 54.2337 95.8952 55.1837 96.9922Z" fill="#F2F2F2"/>
<path d="M51.8061 97.0372C50.6961 96.2042 49.4961 95.3482 48.8071 94.1152C49.7251 95.1662 50.9021 95.9632 51.8061 97.0372Z" fill="#F2F2F2"/>
<path d="M48.694 97.0162C47.567 96.2742 46.539 95.3982 45.582 94.4482C46.68 95.2282 47.727 96.0782 48.694 97.0162Z" fill="#F2F2F2"/>
<path d="M58.8408 97.3481C57.5638 96.3231 56.3988 95.1371 55.4668 93.7871C56.6398 94.9931 57.7698 96.1021 58.8408 97.3481Z" fill="#F2F2F2"/>
<path d="M65.8381 97.304C64.6761 96.445 63.6011 95.476 62.6201 94.416C63.7811 95.276 64.8581 96.242 65.8381 97.304Z" fill="#F2F2F2"/>
<path d="M71.0028 98.2799C69.6378 97.4729 68.4059 96.4699 67.2979 95.3379C68.6049 96.2249 69.8378 97.2149 71.0028 98.2799Z" fill="#F2F2F2"/>
<path d="M85.2308 59.2246C84.2728 60.0576 83.2428 60.8016 82.1958 61.5186C83.0558 60.5686 84.1108 59.8356 85.2308 59.2246Z" fill="#F2F2F2"/>
<path d="M82.6082 64.1299C81.5222 66.4229 80.6252 68.7969 79.6802 71.1509C80.0652 68.6059 81.0392 66.1759 82.6082 64.1299Z" fill="#F2F2F2"/>
<path d="M81.5898 62.7891C81.1518 63.8371 80.6888 64.8771 80.1748 65.8901C80.4438 64.7731 80.9368 63.7321 81.5898 62.7891Z" fill="#F2F2F2"/>
<path d="M88.7452 55.6611C87.6802 56.1501 86.5802 56.5601 85.4502 56.8711C86.5122 56.3771 87.6162 55.9771 88.7452 55.6611Z" fill="#F2F2F2"/>
<path d="M83.166 72.3555C82.558 73.6725 81.866 74.9485 81.085 76.1715C81.689 74.8535 82.389 73.5805 83.166 72.3555Z" fill="#F2F2F2"/>
<path d="M76.0101 80.0576C76.0521 81.8696 76.2061 83.6786 76.1471 85.4926C75.8201 83.6986 75.6861 81.8616 76.0101 80.0576Z" fill="#F2F2F2"/>
<path d="M66.579 49.4613C65.126 47.3843 63.924 45.1553 62.626 42.9873C64.343 44.8503 65.602 47.1323 66.579 49.4613Z" fill="#F2F2F2"/>
<path d="M63.9551 48.1533C64.6131 50.3853 65.0801 52.6703 65.3321 54.9843C64.6691 52.7533 64.2131 50.4663 63.9551 48.1533Z" fill="#F2F2F2"/>
<path d="M60.8157 55.9912C61.1037 57.8192 61.2157 59.6722 61.1107 61.5212C60.7827 59.6972 60.7087 57.8402 60.8157 55.9912Z" fill="#F2F2F2"/>
<path d="M56.742 47.3616C56.183 46.3476 55.723 45.2826 55.355 44.1846C55.919 45.1966 56.382 46.2606 56.742 47.3616Z" fill="#F2F2F2"/>
<path d="M57.638 43.4075C57.059 42.6765 56.556 41.8885 56.126 41.0615C56.702 41.7945 57.211 42.5785 57.638 43.4075Z" fill="#F2F2F2"/>
<path d="M57.0001 37.767C56.3191 36.852 55.7081 35.887 55.1821 34.876C55.8651 35.788 56.4691 36.757 57.0001 37.767Z" fill="#F2F2F2"/>
<path d="M52.535 52.0859C52.634 53.1659 52.622 54.2529 52.478 55.3279C52.371 54.2489 52.399 53.1619 52.535 52.0859Z" fill="#F2F2F2"/>
<path d="M13.9299 41.0918C13.5379 42.4968 13.1769 43.9118 12.7349 45.3028C12.8499 43.8298 13.2349 42.3988 13.9299 41.0918Z" fill="#F2F2F2"/>
<path d="M14.4488 43.1738C14.1478 44.5078 13.7738 45.8238 13.3638 47.1288C13.4878 45.7558 13.8958 44.4318 14.4488 43.1738Z" fill="#F2F2F2"/>
<path d="M14.166 47.8975C14.816 49.8895 16.36 51.4045 17.305 53.2505C15.976 51.6655 14.442 50.0335 14.166 47.8975Z" fill="#F2F2F2"/>
<path d="M41.4608 45.562C40.6368 45.416 39.8268 45.192 39.0688 44.832C39.8848 45.009 40.6888 45.242 41.4608 45.562Z" fill="#F2F2F2"/>
<path d="M25.9289 42.8672C24.1179 43.5912 22.0699 43.6382 20.2139 43.0432C22.1079 43.3082 24.0619 43.2982 25.9289 42.8672Z" fill="#F2F2F2"/>
<path d="M24.9762 44.0156C23.8182 44.3546 22.6162 44.3636 21.4302 44.1796C22.6142 44.1526 23.7972 44.1416 24.9762 44.0156Z" fill="#F2F2F2"/>
<path d="M47.577 44.5527C46.263 45.0427 44.87 45.2827 43.478 45.4157C44.856 45.1107 46.21 44.8977 47.577 44.5527Z" fill="#F2F2F2"/>
<path d="M45.2528 46.2824C43.3728 46.7564 41.3668 46.4754 39.5928 45.7334C41.4338 46.1894 43.3558 46.5014 45.2528 46.2824Z" fill="#F2F2F2"/>
<path d="M32.4998 43.1157C31.6158 41.7317 30.8138 40.2987 30.0508 38.8457C30.9798 40.2017 31.8098 41.6237 32.4998 43.1157Z" fill="#F2F2F2"/>
<path d="M31.5031 42.2775C30.7641 41.3985 30.1281 40.4385 29.4971 39.4795C30.2531 40.3475 30.9041 41.2965 31.5031 42.2775Z" fill="#F2F2F2"/>
<path d="M30.487 42.1802C29.831 41.3382 29.227 40.4562 28.688 39.5352C29.336 40.3822 29.962 41.2502 30.487 42.1802Z" fill="#F2F2F2"/>
<path d="M29.4969 42.2049C28.7189 41.2989 28.0669 40.2969 27.4229 39.2949C28.1719 40.2229 28.8539 41.2009 29.4969 42.2049Z" fill="#F2F2F2"/>
<path d="M28.338 42.4512C27.695 41.4672 27.143 40.4292 26.563 39.4072C27.272 40.3492 27.865 41.3712 28.338 42.4512Z" fill="#F2F2F2"/>
<path d="M27.2057 22.2071C28.0077 21.8151 28.9028 21.1531 29.8378 20.9091C31.6818 20.5971 33.5358 21.1431 35.3538 21.1141C33.4658 21.3991 31.5178 20.9301 29.6558 21.3351C28.6478 21.6671 27.7288 22.2371 26.6988 22.5191C25.8038 22.7991 26.8587 22.3941 27.2057 22.2071Z" fill="#F2F2F2"/>
<path d="M45.934 26.6034C44.465 25.5604 42.969 24.5674 41.291 23.8184C43.07 24.3184 44.572 25.3834 45.934 26.6034Z" fill="#F2F2F2"/>
<path d="M74.5901 28.9502C73.4411 29.7102 72.4451 30.6872 71.2861 31.4402C72.3211 30.5372 73.3441 29.5532 74.5901 28.9502Z" fill="#F2F2F2"/>
<path d="M69.4839 37.3966C69.8929 36.3086 70.4929 35.3206 71.4059 34.5836C72.2989 33.7916 73.1669 33.2466 73.8839 32.4786C74.4699 31.9506 74.9969 31.4686 75.6989 30.7096C77.3589 29.2206 79.3909 28.1736 81.3359 27.1016C79.6889 28.1826 78.0789 29.3346 76.5439 30.5696C75.6329 31.5486 74.7459 32.5456 73.7369 33.4286C72.9689 34.1506 72.0239 34.6326 71.2349 35.3306C70.4889 35.8736 70.037 36.6826 69.588 37.4666C69.414 37.7506 69.2469 38.0396 69.0859 38.3306C69.2109 38.0166 69.3419 37.7046 69.4839 37.3966Z" fill="#F2F2F2"/>
<path d="M67.2298 39.3379C66.7528 40.6429 66.4797 42.0169 65.9897 43.3199C66.2647 41.9599 66.5618 40.5659 67.2298 39.3379Z" fill="#F2F2F2"/>
<path d="M98.3667 21.6638C94.6987 20.0878 90.5627 21.0648 86.8037 21.8048C90.4997 20.7278 94.7967 19.6828 98.3667 21.6638Z" fill="#F2F2F2"/>
</svg>
