<svg width="50" height="49" viewBox="0 0 50 49" fill="none" xmlns="http://www.w3.org/2000/svg">
<mask id="mask0_603_1277" style="mask-type:alpha" maskUnits="userSpaceOnUse" x="0" y="0" width="50" height="49">
<path d="M49.5 24.1379C49.5 37.1764 38.5477 47.7759 25 47.7759C11.4523 47.7759 0.5 37.1764 0.5 24.1379C0.5 11.0995 11.4523 0.5 25 0.5C38.5477 0.5 49.5 11.0995 49.5 24.1379Z" fill="#D9D9D9" stroke="black"/>
</mask>
<g mask="url(#mask0_603_1277)">
<path d="M125.363 115.932C125.303 115.784 125.305 115.666 125.218 115.528C125.151 115.421 125.067 115.321 124.99 115.222C124.8 114.979 124.607 114.741 124.431 114.487C124.109 114.024 123.821 113.545 123.471 113.103C122.827 112.289 122.143 111.538 121.33 110.897C120.167 109.982 118.847 109.302 117.466 108.805C116.889 108.532 116.303 108.28 115.701 108.073C114.555 107.68 113.385 107.417 112.193 107.273C112.403 107.202 112.616 107.141 112.835 107.102C113.136 107.048 113.074 106.619 112.799 106.578C111.863 106.44 110.933 106.294 109.994 106.197C110.02 105.958 109.756 105.781 109.539 105.805C108.083 105.969 106.618 106.074 105.157 106.197C99.8678 106.375 94.5824 106.671 89.3063 107.099C86.5135 107.325 83.728 107.624 80.9411 107.916C79.5681 108.06 78.195 108.25 76.8161 108.317C75.4404 108.385 74.0549 108.36 72.6805 108.265C71.1666 108.161 69.6823 107.847 68.2256 107.419C67.4953 107.205 66.7729 106.964 66.0532 106.716C65.7417 106.609 65.4308 106.499 65.1207 106.388C65.1213 106.387 65.1213 106.386 65.122 106.385C65.4157 105.564 65.6995 104.731 65.8872 103.877C66.0683 103.052 66.2343 102.221 66.3225 101.379C66.3442 101.175 66.3614 100.969 66.3739 100.763C66.3969 100.847 66.4193 100.931 66.4371 101.017C66.5122 101.39 67.0146 101.324 67.0627 100.971C67.4433 98.1759 66.7189 95.3571 66.1473 92.6451C65.554 89.8304 65.1148 86.9677 64.6775 84.1238C64.4582 82.6965 64.2455 81.2679 64.0512 79.8365C63.8629 78.4497 63.6614 77.0711 63.3407 75.7094C62.7776 73.3219 61.9255 71.015 60.9476 68.777C60.4089 67.5444 59.7715 66.3672 59.0464 65.2395C58.6823 64.6722 58.2964 64.1171 57.8762 63.5917C58.164 63.7195 58.4933 63.3483 58.3425 63.0501C58.0086 62.3896 57.5996 61.7614 57.2111 61.134C56.8213 60.5052 56.4209 59.8818 55.9955 59.2773C55.1638 58.0941 54.2497 56.9771 53.2257 55.9636C52.1747 54.9237 51.0375 53.9785 49.8778 53.0691C48.7557 52.1887 47.6302 51.3091 46.4831 50.4626C45.8351 49.9845 45.1687 49.5153 44.4561 49.1434C43.9497 48.8784 43.3465 48.5471 42.7492 48.4741C42.6893 47.8723 42.6024 47.2739 42.5491 46.6715C42.4872 45.9717 42.5629 45.3077 42.638 44.614C42.7144 43.9095 42.6162 43.2259 42.4154 42.5518C42.3159 42.2171 42.1737 41.9007 42.0703 41.5674C41.9636 41.2232 41.9241 40.8588 41.8925 40.4998C41.8602 40.1319 41.8556 39.7668 41.8714 39.3977C41.8872 39.0109 41.9656 38.6397 42.0031 38.2557C42.0703 37.5681 42.0268 36.8967 42.2791 36.2455C42.3778 35.9906 42.4707 35.7121 42.447 35.4335C42.4239 35.1603 42.2955 34.9413 42.1698 34.7067C42.044 34.472 41.9366 34.3111 42.0466 34.0495C42.1941 33.6965 42.3462 33.3963 42.4068 33.0102C42.5056 32.3869 42.4503 31.6985 42.1895 31.1191C42.3429 30.9082 42.4964 30.6965 42.6571 30.4896C42.8981 30.1786 43.0462 29.8426 43.0489 29.4396C43.0522 29.0292 42.9995 28.612 42.9685 28.2036C42.9356 27.7689 42.9033 27.3341 42.8704 26.8994C42.8566 26.7161 42.8467 26.4693 42.7907 26.2503C43.0818 25.8676 43.3255 25.4484 43.4967 24.994C43.8384 24.0866 44.0156 23.0846 44.2191 22.1367C44.3659 21.4511 44.5589 20.516 44.3429 19.777C44.3435 19.7749 44.3449 19.7736 44.3455 19.7716C45.1871 17.7438 45.6896 15.5349 45.6132 13.3219C45.5756 12.2313 45.4163 11.1441 45.0804 10.1069C44.7808 9.18264 44.3699 7.88717 43.2096 7.91963C42.6551 7.93518 42.1553 8.19753 41.666 8.43958C41.1569 8.6911 40.6492 8.94532 40.1454 9.20698C39.1228 9.73842 38.1152 10.3037 37.1564 10.9501C36.1719 11.6133 35.2203 12.3496 34.3958 13.2171C34.0073 13.6255 33.6162 14.0691 33.275 14.5471C33.1947 14.4538 33.1071 14.376 33.0064 14.3361C32.3472 14.0772 31.8539 14.9115 31.4957 15.3192C31.0473 15.829 30.2122 15.6532 29.6169 15.616C29.2824 15.5951 28.9538 15.5626 28.6324 15.4592C28.3585 15.3713 28.076 15.2307 27.7902 15.1718C27.3582 14.6235 26.6068 14.2543 25.9246 14.4856C25.7784 14.5349 25.918 14.5241 25.8146 14.4653C25.7323 14.4179 25.6783 14.3625 25.5854 14.3253C25.4103 14.2563 25.2239 14.2631 25.0468 14.3138C24.8466 14.3699 24.6839 14.4788 24.514 14.5964C24.4403 14.6478 24.3665 14.6992 24.2848 14.7377C24.2546 14.7519 24.1953 14.7641 24.1782 14.7831C24.1406 14.7094 24.0787 14.5613 24.0662 14.5424C24.0136 14.4673 23.9595 14.4017 23.8858 14.3456C23.7192 14.2192 23.515 14.1684 23.3102 14.1989C23.1114 14.2286 22.952 14.3388 22.7696 14.4125C22.6708 14.4531 22.5806 14.4585 22.4884 14.4599C22.3264 14.2929 22.1684 14.1211 22.0274 13.9352C21.8595 13.7134 21.7146 13.4788 21.5849 13.232C21.4341 12.9453 21.2846 12.6667 21.0298 12.4619C20.8171 12.2908 20.5556 12.2138 20.3258 12.0738C20.1928 11.9933 20.1019 11.875 20.0202 11.7486C19.5948 10.6911 18.9765 9.71747 18.3575 8.77088C17.5343 7.51328 16.6479 6.30029 15.6931 5.14478C15.2288 4.58291 14.7494 4.0339 14.2549 3.49976C13.8084 3.017 13.3428 2.5153 12.7699 2.1894C12.1463 1.83443 11.4462 1.7107 10.7666 1.97101C10.6277 2.02442 10.4953 2.09677 10.3761 2.18331C10.2444 2.18399 10.1075 2.2374 10.0271 2.34085C9.82035 2.60657 9.75647 2.94127 9.66033 3.2604C9.5576 3.60118 9.46013 3.94329 9.36135 4.28473L8.80293 6.22187C8.43547 7.4957 7.93565 8.80874 7.84412 10.1434C7.79934 10.7912 7.8823 11.4389 7.94223 12.0826C8.00479 12.7533 7.99029 13.4179 7.92971 14.088C7.81117 15.3997 7.6123 16.6877 7.75652 18.0069C7.76903 18.1198 7.78682 18.2313 7.80328 18.3429C7.74467 18.5011 7.72097 18.6931 7.70187 18.8013C7.63668 19.1698 7.61165 19.5498 7.56556 19.9217C7.47797 20.6262 7.35679 21.3328 6.98736 21.9474C6.80429 22.2516 6.53694 22.497 6.3677 22.8087C6.15565 23.1989 6.13786 23.6147 6.36044 24.0055C6.37493 24.0312 6.38876 24.0576 6.40325 24.0826C6.3802 24.1543 6.35716 24.2253 6.33938 24.2989C6.29592 24.4822 6.27155 24.6688 6.22479 24.8513C6.13062 25.2178 6.01802 25.5822 5.90146 25.9419C5.66505 26.6674 5.39834 27.3808 5.18893 28.115C4.76418 29.6012 4.47707 31.1333 4.3322 32.6749C4.04244 35.7587 4.38355 38.829 5.13427 41.8209C5.26663 42.3476 5.41086 42.871 5.56363 43.3916C5.41152 44.2719 5.23635 45.1576 4.99862 46.0177C4.74904 46.921 4.43097 47.8033 4.14188 48.6945C3.56501 50.4734 3.04346 52.2557 2.81561 54.1232C2.58644 56.0035 2.65559 57.8886 2.973 59.7526C3.13434 60.6999 3.33519 61.6404 3.48336 62.5904C3.62626 63.5086 3.82776 64.424 3.92588 65.3497C4.15702 67.5241 4.11884 69.7209 4.3671 71.8919C4.38093 72.0136 4.49486 72.1407 4.60812 72.1732C4.97229 72.2767 5.33316 72.3132 5.68942 72.4038C5.32196 72.9548 5.12703 73.6174 4.95911 74.2564C4.71545 75.1813 4.92552 76.1036 5.11978 77.0143C5.3147 77.9291 5.48528 78.8771 5.81191 79.754C6.02527 80.326 6.46186 80.8236 7.02227 80.9582C6.801 81.5424 6.68379 82.1576 6.69103 82.7946C6.69433 83.0461 6.8741 83.1921 7.11117 83.1685C7.48917 83.1306 7.86584 83.0867 8.24318 83.0441C8.13123 83.2746 8.02653 83.5072 7.94619 83.7648C7.8158 84.1847 7.72229 84.6168 7.65907 85.0522C7.60112 85.4525 7.57477 85.8581 7.59914 86.257C7.57148 86.5829 7.57346 86.9068 7.59387 87.2435C7.65182 88.2178 7.75915 89.1921 7.87044 90.161C8.09698 92.1272 8.35711 94.0901 8.58496 96.0569C8.60406 96.2212 8.78119 96.3483 8.94451 96.3449C8.90368 96.9467 8.89643 97.5518 8.86219 98.1543C8.81346 99.0177 8.72916 99.8784 8.64026 100.738C8.46312 102.448 8.23329 104.166 8.25041 105.889C8.25897 106.78 8.32154 107.672 8.44732 108.553C8.56717 109.39 8.8523 110.208 8.92342 111.05C8.97216 111.621 8.90762 112.155 8.79041 112.686C8.68899 112.948 8.59088 113.211 8.48156 113.47C8.14637 114.262 7.76772 115.026 7.35812 115.78C6.95576 116.519 6.55669 117.259 6.13984 117.991C6.03448 118.175 5.92978 118.361 5.82507 118.546C5.04011 118.337 4.03783 118.736 3.41487 119.13C2.45671 119.736 1.73233 120.631 1.11529 121.584C0.524595 122.496 -0.127992 123.482 -0.333452 124.573C-0.534961 125.641 -0.118129 126.662 0.836733 127.171C1.79423 127.681 2.92821 127.734 3.98185 127.849C5.26598 127.989 6.5534 128.095 7.84279 128.168C9.11901 128.241 10.4328 128.354 11.7097 128.269C12.2635 128.233 12.7995 128.115 13.2658 127.795C13.6951 127.5 14.0599 127.074 14.4057 126.681C15.2189 125.757 15.9743 124.755 16.1936 123.498C16.291 122.938 16.374 122.338 16.2271 121.779C16.2133 121.725 16.1876 121.676 16.1698 121.623C16.2291 121.555 16.2864 121.484 16.343 121.41C16.5669 121.118 16.7744 120.817 16.9726 120.507C17.3809 119.868 17.6989 119.249 17.6719 118.462C17.6713 118.44 17.668 118.419 17.6673 118.397C17.8089 118.126 17.8451 117.788 17.8893 117.492C17.9466 117.106 18.015 116.725 18.0908 116.343C18.2409 115.591 18.4345 114.85 18.615 114.106C18.935 112.783 19.2379 111.448 19.1299 110.086C19.4645 110.116 19.8016 110.054 20.0091 109.752C20.1875 109.493 20.1473 109.187 20.09 108.895C20.04 108.64 19.9886 108.385 19.9373 108.13C20.0999 108.104 20.2566 108.02 20.3791 107.875C20.5293 107.696 20.5846 107.471 20.6208 107.243C20.6636 106.972 20.7473 106.722 20.8454 106.467C21.0291 105.991 21.1707 105.521 21.4229 105.074C21.4782 104.976 21.5368 104.88 21.5941 104.783C21.6218 104.897 21.654 105.007 21.6876 105.107C21.8746 105.653 22.1901 106.127 22.4831 106.615C22.572 106.764 22.6583 106.915 22.7433 107.066C22.6945 107.309 22.6478 107.55 22.5997 107.784C22.3712 108.895 22.1539 110.008 21.957 111.125C21.5625 113.362 21.0574 115.611 20.3982 117.783C20.0756 118.845 19.7358 119.911 19.365 120.956C19.2188 121.369 19.043 121.793 18.6551 122.02C18.2692 122.247 17.8346 122.355 17.4592 122.608C16.7638 123.077 16.2317 123.799 15.9143 124.586C15.7602 124.97 15.7016 125.406 15.591 125.805C15.4731 126.229 15.3684 126.657 15.267 127.085C15.0168 128.144 14.7968 129.384 15.4079 130.363C15.7998 130.989 16.4491 131.457 17.1385 131.354C17.3111 131.512 17.5264 131.642 17.6403 131.702C18.1296 131.96 18.6637 132.095 19.2122 132.125C19.6304 132.148 20.0624 132.12 20.4779 132.037C20.7545 132.149 21.1029 132.178 21.332 132.207C21.8628 132.275 22.3988 132.272 22.9309 132.219C23.4446 132.167 23.951 132.047 24.4389 131.876C24.6174 131.814 24.7913 131.743 24.9605 131.661C25.7784 132.123 26.9848 131.715 27.7052 131.252C28.7345 130.591 29.3924 129.549 29.8705 128.427C30.9142 125.977 31.3844 123.287 32.0535 120.714C32.2497 119.961 32.4604 119.211 32.7021 118.472C32.8167 118.12 32.9385 117.772 33.0683 117.425C33.1124 117.308 33.1598 117.187 33.202 117.066C33.225 117.099 33.2487 117.133 33.2704 117.165C33.4581 117.446 33.6557 117.718 33.8552 117.989C33.9744 118.152 34.2075 118.067 34.2734 117.905C34.4485 117.47 34.3853 117.012 34.3023 116.563C34.2437 116.244 34.1832 115.924 34.1226 115.606C34.2016 115.659 34.2813 115.712 34.3577 115.771C34.4657 115.853 34.6586 115.822 34.7258 115.697C34.87 115.431 34.9701 115.162 35.0294 114.882C35.0728 115.016 35.1189 115.148 35.1525 115.286C35.3534 116.108 35.3942 116.957 35.2644 117.795C34.9714 119.694 33.4482 121.282 33.792 123.3C33.8763 123.794 34.1054 124.264 34.4722 124.599C34.6408 124.754 34.866 124.874 35.0985 124.878C35.109 124.878 35.1183 124.874 35.1288 124.874C35.2842 125.339 35.6023 125.742 35.9888 126.028C36.4933 126.402 37.1195 126.586 37.7313 126.656C38.0843 126.697 38.4227 126.689 38.7382 126.515C38.7751 126.494 38.8376 126.472 38.8817 126.442C38.9054 126.426 38.9252 126.407 38.9456 126.388C38.9673 126.406 38.9871 126.426 39.0095 126.443C39.6904 126.959 40.6295 127.196 41.448 127.35C42.389 127.528 43.2471 127.383 44.1545 127.112C44.5687 126.989 44.9784 126.851 45.3965 126.738C45.845 126.617 46.3198 126.57 46.7807 126.521C47.6783 126.426 48.5805 126.379 49.4761 126.271C50.3467 126.164 51.1961 125.975 52.0371 125.724C52.8938 125.469 53.7493 125.203 54.6304 125.054C55.4476 124.915 56.2747 124.854 57.0998 124.797C58.0356 124.731 58.9747 124.672 59.9012 124.515C60.3556 124.439 60.8001 124.336 61.2374 124.187C61.4975 124.098 61.7247 123.964 61.94 123.807C62.4424 123.651 62.9409 123.477 63.4408 123.333C63.9202 123.196 64.4042 123.079 64.8928 122.981C65.4111 122.876 65.9609 122.849 66.4535 122.651C66.8592 122.488 66.6518 121.925 66.2988 121.871C66.1638 121.85 66.0182 121.76 65.8878 121.715C65.7594 121.672 65.6284 121.637 65.4967 121.604C65.8437 121.476 66.1987 121.371 66.5629 121.297C66.8921 121.229 67.226 121.182 67.5612 121.161C67.8364 121.144 68.1479 121.117 68.4245 121.181C68.4923 121.208 68.5628 121.227 68.6352 121.238C68.9717 121.341 69.1937 120.891 68.9908 120.626C68.8163 120.4 68.5167 120.304 68.2598 120.205C68.0241 120.114 67.7824 120.037 67.5368 119.977C67.5184 119.972 67.4993 119.969 67.4815 119.965C67.6824 119.909 67.8826 119.856 68.0781 119.805C68.7215 119.637 69.3708 119.501 70.0333 119.444C71.3602 119.331 72.6825 119.324 74.0108 119.414C74.3558 119.437 74.5877 118.893 74.2432 118.711C74.2083 118.693 74.1715 118.68 74.1359 118.662C74.8629 118.697 75.5912 118.709 76.315 118.688C76.633 118.68 76.9478 118.653 77.2632 118.628C77.2981 118.625 77.3324 118.624 77.3673 118.621C77.5128 118.608 77.659 118.596 77.8039 118.58C78.0673 118.553 78.3313 118.525 78.5954 118.498C79.4192 118.417 80.2437 118.338 81.0682 118.258C82.752 118.097 84.4313 117.87 86.1099 117.663C89.4282 117.254 92.7465 116.844 96.0641 116.427C99.4009 116.009 102.738 115.59 106.074 115.172C106.911 115.067 107.747 114.968 108.583 114.858C109.384 114.753 110.178 114.578 110.979 114.48C112.527 114.291 114.133 114.731 115.591 115.215C117.142 115.73 118.652 116.377 120.274 116.631C121.056 116.753 121.849 116.772 122.632 116.658C123.034 116.599 123.425 116.496 123.82 116.407C124.028 116.361 124.237 116.319 124.449 116.296C124.559 116.284 124.664 116.258 124.768 116.229C124.85 116.262 124.935 116.287 125.027 116.329C125.264 116.441 125.447 116.141 125.363 115.932Z" fill="#272525"/>
</g>
</svg>
