<svg width="192" height="34" viewBox="0 0 192 34" fill="none" xmlns="http://www.w3.org/2000/svg">
<mask id="mask0_205_319" style="mask-type:alpha" maskUnits="userSpaceOnUse" x="0" y="3" width="29" height="28">
<path d="M28.5 17C28.5 24.4395 22.2487 30.5 14.5 30.5C6.75133 30.5 0.5 24.4395 0.5 17C0.5 9.56055 6.75133 3.5 14.5 3.5C22.2487 3.5 28.5 9.56055 28.5 17Z" fill="#D9D9D9" stroke="black"/>
</mask>
<g mask="url(#mask0_205_319)">
<path d="M72.7103 70.2404C72.6759 70.1549 72.6771 70.0863 72.6263 70.0059C72.5873 69.9443 72.5388 69.8859 72.4941 69.8286C72.3837 69.6878 72.2722 69.5498 72.1699 69.4023C71.9835 69.1337 71.8162 68.8561 71.6133 68.5996C71.2398 68.1274 70.843 67.6921 70.3713 67.3204C69.6971 66.7894 68.9313 66.3949 68.13 66.107C67.7958 65.9482 67.4559 65.8023 67.1064 65.6823C66.4418 65.4545 65.7631 65.3019 65.0722 65.218C65.194 65.1772 65.3174 65.142 65.4446 65.1192C65.6191 65.0878 65.5832 64.8388 65.4236 64.8153C64.8808 64.7353 64.3411 64.6506 63.7965 64.5941C63.8114 64.4557 63.6586 64.3529 63.5325 64.3671C62.6881 64.462 61.8386 64.5231 60.9911 64.5941C57.9233 64.6972 54.8578 64.869 51.7977 65.1172C50.1779 65.2486 48.5622 65.4216 46.9458 65.5914C46.1495 65.6749 45.3531 65.7847 44.5533 65.8239C43.7555 65.8631 42.9518 65.8486 42.1547 65.7937C41.2766 65.7333 40.4157 65.5514 39.5709 65.3031C39.1473 65.1788 38.7283 65.0388 38.3108 64.8953C38.1302 64.8333 37.9499 64.7694 37.77 64.7051C37.7704 64.7043 37.7704 64.7039 37.7708 64.7031C37.9411 64.227 38.1057 63.7439 38.2146 63.2486C38.3196 62.7702 38.4159 62.2882 38.467 61.8C38.4797 61.6812 38.4896 61.5619 38.4968 61.4423C38.5102 61.491 38.5232 61.54 38.5335 61.5898C38.5771 61.8063 38.8685 61.7678 38.8963 61.5631C39.1171 59.9419 38.697 58.307 38.3655 56.7341C38.0213 55.1015 37.7666 53.4412 37.513 51.7917C37.3858 50.9639 37.2624 50.1353 37.1497 49.3051C37.0405 48.5008 36.9236 47.7012 36.7376 46.9114C36.411 45.5266 35.9168 44.1886 35.3496 42.8906C35.0372 42.1757 34.6675 41.4929 34.2469 40.8388C34.0357 40.5098 33.8119 40.1878 33.5682 39.8831C33.7351 39.9572 33.9261 39.7419 33.8386 39.569C33.645 39.1859 33.4078 38.8216 33.1825 38.4576C32.9563 38.0929 32.7241 37.7314 32.4774 37.3808C31.995 36.6945 31.4649 36.0466 30.8709 35.4588C30.2613 34.8557 29.6017 34.3074 28.9291 33.78C28.2783 33.2694 27.6255 32.7592 26.9602 32.2682C26.5844 31.991 26.1978 31.7188 25.7846 31.5031C25.4909 31.3494 25.141 31.1572 24.7946 31.1149C24.7598 30.7659 24.7094 30.4188 24.6785 30.0694C24.6426 29.6635 24.6865 29.2784 24.73 28.8761C24.7743 28.4674 24.7174 28.071 24.6009 27.68C24.5432 27.4859 24.4608 27.3023 24.4008 27.109C24.3389 26.9094 24.316 26.698 24.2977 26.4898C24.2789 26.2765 24.2763 26.0647 24.2854 25.8506C24.2946 25.6263 24.3401 25.411 24.3618 25.1882C24.4008 24.7894 24.3756 24.4 24.5219 24.0223C24.5792 23.8745 24.633 23.7129 24.6193 23.5513C24.6059 23.3929 24.5314 23.2659 24.4585 23.1298C24.3855 22.9937 24.3232 22.9004 24.387 22.7486C24.4726 22.5439 24.5608 22.3698 24.596 22.1459C24.6532 21.7843 24.6212 21.3851 24.4699 21.049C24.5589 20.9266 24.6479 20.8039 24.7411 20.6839C24.8809 20.5035 24.9668 20.3086 24.9684 20.0749C24.9703 19.8368 24.9397 19.5949 24.9218 19.358C24.9027 19.1059 24.8839 18.8537 24.8648 18.6016C24.8568 18.4953 24.8511 18.3521 24.8186 18.2251C24.9875 18.0031 25.1288 17.76 25.2281 17.4964C25.4263 16.9702 25.5291 16.389 25.6471 15.8392C25.7322 15.4415 25.8442 14.8992 25.7189 14.4706C25.7193 14.4694 25.72 14.4686 25.7204 14.4674C26.2085 13.2913 26.4999 12.0102 26.4556 10.7266C26.4339 10.0941 26.3414 9.4635 26.1467 8.86193C25.9729 8.32585 25.7345 7.57448 25.0615 7.59331C24.7399 7.60233 24.4501 7.75449 24.1663 7.89488C23.871 8.04076 23.5766 8.18821 23.2844 8.33997C22.6912 8.64821 22.1068 8.97605 21.5507 9.35095C20.9797 9.73566 20.4278 10.1627 19.9496 10.6659C19.7242 10.9027 19.4974 11.16 19.2995 11.4372C19.2529 11.3831 19.2021 11.338 19.1437 11.3149C18.7614 11.1647 18.4753 11.6486 18.2675 11.8851C18.0074 12.1808 17.5231 12.0788 17.1778 12.0572C16.9838 12.0451 16.7932 12.0262 16.6068 11.9662C16.4479 11.9153 16.2841 11.8337 16.1183 11.7996C15.8678 11.4815 15.432 11.2674 15.0363 11.4015C14.9515 11.4302 15.0324 11.4239 14.9725 11.3898C14.9247 11.3623 14.8934 11.3302 14.8396 11.3086C14.738 11.2686 14.6299 11.2725 14.5271 11.3019C14.411 11.3345 14.3167 11.3976 14.2181 11.4659C14.1754 11.4957 14.1326 11.5255 14.0852 11.5478C14.0676 11.556 14.0333 11.5631 14.0233 11.5741C14.0016 11.5313 13.9657 11.4455 13.9584 11.4345C13.9279 11.391 13.8965 11.3529 13.8538 11.3204C13.7571 11.247 13.6387 11.2176 13.5199 11.2353C13.4046 11.2525 13.3122 11.3164 13.2064 11.3592C13.1491 11.3827 13.0967 11.3859 13.0433 11.3866C12.9493 11.2898 12.8577 11.1902 12.7759 11.0823C12.6785 10.9537 12.5945 10.8176 12.5193 10.6745C12.4318 10.5082 12.3451 10.3466 12.1973 10.2278C12.0739 10.1286 11.9223 10.0839 11.789 10.0027C11.7118 9.95606 11.6591 9.88742 11.6117 9.81409C11.365 9.20076 11.0064 8.63605 10.6473 8.08703C10.1699 7.35762 9.6558 6.65409 9.10198 5.98389C8.83271 5.65801 8.55466 5.33959 8.26782 5.02978C8.00886 4.74978 7.73882 4.45879 7.40653 4.26977C7.04483 4.06389 6.63883 3.99213 6.24466 4.14311C6.16407 4.17409 6.0873 4.21605 6.01817 4.26624C5.94178 4.26664 5.86234 4.29762 5.81574 4.35762C5.69581 4.51173 5.65876 4.70586 5.60299 4.89096C5.54341 5.0886 5.48688 5.28703 5.42959 5.48507L5.1057 6.60861C4.89258 7.34743 4.60268 8.10899 4.54959 8.88311C4.52362 9.2588 4.57174 9.63449 4.6065 10.0078C4.64278 10.3968 4.63437 10.7823 4.59924 11.1709C4.53049 11.9317 4.41514 12.6788 4.49878 13.4439C4.50604 13.5094 4.51636 13.5741 4.52591 13.6388C4.49191 13.7306 4.47817 13.8419 4.46709 13.9047C4.42928 14.1184 4.41476 14.3388 4.38803 14.5545C4.33723 14.9631 4.26694 15.3729 4.05267 15.7294C3.94649 15.9059 3.79143 16.0482 3.69327 16.229C3.57028 16.4553 3.55997 16.6964 3.68906 16.9231C3.69747 16.938 3.70549 16.9533 3.71389 16.9678C3.70052 17.0094 3.68716 17.0506 3.67685 17.0933C3.65164 17.1996 3.6375 17.3078 3.61038 17.4137C3.55577 17.6262 3.49045 17.8376 3.42285 18.0463C3.28573 18.467 3.13104 18.8808 3.00959 19.3066C2.76323 20.1686 2.59671 21.0572 2.51268 21.9514C2.34462 23.74 2.54246 25.5208 2.97788 27.2561C3.05465 27.5615 3.1383 27.8651 3.22691 28.167C3.13868 28.6776 3.03709 29.1913 2.8992 29.6902C2.75445 30.2141 2.56997 30.7259 2.4023 31.2427C2.06771 32.2745 1.76521 33.3082 1.63306 34.3913C1.50014 35.4819 1.54025 36.5753 1.72435 37.6565C1.81792 38.2059 1.93441 38.7514 2.02035 39.3023C2.10323 39.8349 2.22011 40.3659 2.27702 40.9027C2.41108 42.1639 2.38893 43.438 2.53292 44.6972C2.54095 44.7678 2.60702 44.8416 2.67272 44.8604C2.88393 44.9204 3.09324 44.9416 3.29987 44.9941C3.08674 45.3137 2.97368 45.698 2.87629 46.0686C2.73497 46.6051 2.8568 47.14 2.96948 47.6682C3.08253 48.1988 3.18147 48.7486 3.37091 49.2572C3.49466 49.589 3.74788 49.8776 4.07292 49.9557C3.94459 50.2945 3.8766 50.6514 3.8808 51.0208C3.88271 51.1666 3.98699 51.2514 4.12449 51.2376C4.34372 51.2157 4.56219 51.1902 4.78105 51.1655C4.71612 51.2992 4.65539 51.4341 4.60879 51.5835C4.53317 51.827 4.47893 52.0776 4.44226 52.3302C4.40865 52.5623 4.39337 52.7976 4.40751 53.029C4.39146 53.218 4.39261 53.4059 4.40445 53.6012C4.43806 54.1663 4.50031 54.7314 4.56486 55.2933C4.69625 56.4337 4.84713 57.5721 4.97928 58.7129C4.99036 58.8082 5.0931 58.8819 5.18782 58.88C5.16414 59.229 5.15994 59.58 5.14008 59.9294C5.11181 60.4302 5.06292 60.9294 5.01136 61.4282C4.90861 62.42 4.77531 63.4165 4.78524 64.4157C4.79021 64.9321 4.8265 65.4494 4.89945 65.9604C4.96896 66.4459 5.13434 66.9204 5.17559 67.409C5.20385 67.74 5.16643 68.0498 5.09844 68.3576C5.03962 68.5098 4.98271 68.6623 4.91931 68.8125C4.7249 69.2718 4.50528 69.7153 4.26771 70.1521C4.03435 70.5812 3.80289 71.0102 3.56111 71.4345C3.5 71.5416 3.43928 71.649 3.37855 71.7565C2.92327 71.6353 2.34195 71.8667 1.98063 72.0953C1.4249 72.4471 1.00476 72.9659 0.646874 73.5188C0.30427 74.0474 -0.0742304 74.6196 -0.193397 75.2525C-0.310272 75.8718 -0.0685099 76.4639 0.48531 76.7588C1.04066 77.0549 1.69837 77.0859 2.30948 77.1525C3.05427 77.2337 3.80098 77.2953 4.54882 77.3376C5.28903 77.3796 6.05102 77.4451 6.79161 77.3961C7.11282 77.3749 7.42373 77.3067 7.69414 77.1208C7.94317 76.9498 8.15476 76.7027 8.35529 76.4749C8.82699 75.9388 9.26508 75.3576 9.39226 74.6286C9.44879 74.3039 9.49692 73.9557 9.41174 73.6318C9.40372 73.6004 9.38882 73.5718 9.37851 73.5412C9.41289 73.5016 9.44611 73.4604 9.47896 73.4176C9.60882 73.2486 9.72914 73.0737 9.84411 72.8937C10.0809 72.5231 10.2654 72.1643 10.2497 71.7078C10.2493 71.6953 10.2474 71.6827 10.2471 71.6702C10.3292 71.5129 10.3502 71.3172 10.3758 71.1451C10.409 70.9216 10.4487 70.7004 10.4927 70.4788C10.5797 70.0427 10.692 69.6129 10.7967 69.1812C10.9823 68.4141 11.158 67.64 11.0954 66.8498C11.2894 66.867 11.4849 66.831 11.6053 66.6561C11.7088 66.5059 11.6855 66.3286 11.6522 66.1588C11.6232 66.011 11.5934 65.8631 11.5636 65.7153C11.658 65.7 11.7489 65.6517 11.8199 65.5674C11.907 65.4635 11.9391 65.3333 11.9601 65.2008C11.9849 65.0439 12.0334 64.8984 12.0903 64.751C12.1969 64.4745 12.279 64.202 12.4253 63.9427C12.4574 63.8863 12.4914 63.8302 12.5246 63.7741C12.5406 63.84 12.5593 63.9039 12.5788 63.9619C12.6873 64.2784 12.8703 64.5533 13.0402 64.8369C13.0918 64.9231 13.1418 65.0106 13.1911 65.0984C13.1628 65.2392 13.1357 65.3788 13.1078 65.5149C12.9753 66.1592 12.8493 66.8043 12.7351 67.4521C12.5063 68.7498 12.2133 70.0545 11.831 71.3141C11.6438 71.9302 11.4467 72.5482 11.2317 73.1545C11.1469 73.3941 11.0449 73.6396 10.82 73.7718C10.5962 73.9031 10.3441 73.9659 10.1264 74.1125C9.72303 74.3843 9.41441 74.8035 9.23032 75.26C9.14094 75.4823 9.10695 75.7357 9.04278 75.967C8.97441 76.2125 8.91368 76.4612 8.85486 76.709C8.70972 77.3235 8.58216 78.0427 8.93661 78.6102C9.16386 78.9737 9.54046 79.2447 9.94035 79.1851C10.0404 79.2769 10.1653 79.3525 10.2314 79.3871C10.5152 79.5365 10.8249 79.6153 11.1431 79.6325C11.3856 79.6455 11.6362 79.6298 11.8772 79.5816C12.0376 79.6463 12.2397 79.6631 12.3726 79.68C12.6804 79.7192 12.9913 79.7176 13.2999 79.6867C13.5979 79.6569 13.8916 79.5874 14.1746 79.4882C14.2781 79.4518 14.3789 79.4106 14.4771 79.3635C14.9515 79.6314 15.6512 79.3945 16.069 79.1263C16.666 78.7427 17.0476 78.1384 17.3249 77.4878C17.9303 76.0667 18.203 74.5063 18.591 73.0141C18.7048 72.5772 18.8271 72.1423 18.9672 71.7137C19.0337 71.5098 19.1044 71.3074 19.1796 71.1066C19.2052 71.0384 19.2327 70.9686 19.2571 70.898C19.2705 70.9172 19.2843 70.9369 19.2969 70.9557C19.4057 71.1188 19.5203 71.2761 19.636 71.4337C19.7052 71.5278 19.8404 71.4788 19.8786 71.3847C19.9802 71.1325 19.9435 70.8667 19.8954 70.6063C19.8614 70.4212 19.8262 70.2361 19.7911 70.0514C19.8369 70.0823 19.8831 70.1129 19.9274 70.147C19.9901 70.1949 20.102 70.1765 20.141 70.1043C20.2246 69.9498 20.2827 69.7941 20.317 69.6318C20.3422 69.709 20.369 69.7859 20.3885 69.8659C20.505 70.3427 20.5286 70.8349 20.4534 71.3208C20.2834 72.4223 19.4 73.3435 19.5994 74.5137C19.6482 74.8004 19.7812 75.0729 19.9939 75.2674C20.0917 75.3572 20.2223 75.427 20.3571 75.429C20.3632 75.429 20.3686 75.4267 20.3747 75.4267C20.4648 75.6965 20.6493 75.9302 20.8735 76.0961C21.1661 76.3129 21.5293 76.42 21.8841 76.4604C22.0889 76.4839 22.2852 76.4796 22.4681 76.3784C22.4895 76.3667 22.5258 76.3537 22.5514 76.3365C22.5652 76.3271 22.5766 76.3161 22.5885 76.3051C22.6011 76.3153 22.6125 76.327 22.6255 76.3368C23.0204 76.6361 23.5651 76.7737 24.0398 76.8631C24.5856 76.9659 25.0833 76.882 25.6096 76.7251C25.8499 76.6537 26.0875 76.5737 26.33 76.5082C26.5901 76.4376 26.8655 76.4106 27.1328 76.3823C27.6534 76.327 28.1767 76.3 28.6961 76.2368C29.2011 76.1753 29.6938 76.0655 30.1815 75.92C30.6784 75.7718 31.1746 75.6176 31.6856 75.531C32.1596 75.4506 32.6393 75.4153 33.1179 75.3819C33.6607 75.3439 34.2053 75.3098 34.7427 75.2188C35.0062 75.1745 35.2641 75.1149 35.5177 75.0282C35.6685 74.9768 35.8003 74.8988 35.9252 74.8082C36.2166 74.7176 36.5057 74.6165 36.7956 74.5333C37.0737 74.4537 37.3544 74.3855 37.6378 74.3286C37.9384 74.2678 38.2574 74.2521 38.543 74.1376C38.7783 74.0431 38.658 73.7165 38.4533 73.6851C38.375 73.6729 38.2906 73.6208 38.215 73.5949C38.1405 73.5698 38.0645 73.5494 37.9881 73.5302C38.1894 73.4561 38.3952 73.3953 38.6065 73.3521C38.7974 73.3129 38.9911 73.2855 39.1855 73.2733C39.3451 73.2635 39.5258 73.2478 39.6862 73.2847C39.7255 73.3004 39.7664 73.3118 39.8084 73.318C40.0036 73.3776 40.1323 73.1165 40.0147 72.9631C39.9135 72.8318 39.7397 72.7765 39.5907 72.7188C39.454 72.6659 39.3138 72.6216 39.1714 72.5867C39.1607 72.5839 39.1496 72.5819 39.1393 72.5796C39.2558 72.547 39.3719 72.5165 39.4853 72.487C39.8585 72.3894 40.2351 72.3106 40.6193 72.2776C41.3889 72.2121 42.1559 72.2078 42.9262 72.26C43.1264 72.2733 43.2608 71.9576 43.0611 71.8525C43.0408 71.8419 43.0194 71.8345 42.9988 71.8239C43.4205 71.8443 43.8429 71.851 44.2627 71.8392C44.4472 71.8341 44.6297 71.8188 44.8127 71.8039C44.8329 71.8023 44.8528 71.8016 44.873 71.8C44.9574 71.7925 45.0422 71.7855 45.1263 71.7765C45.279 71.7608 45.4322 71.7443 45.5853 71.729C46.0632 71.6816 46.5413 71.6357 47.0195 71.5898C47.9962 71.4961 48.9701 71.3647 49.9437 71.2447C51.8683 71.0074 53.793 70.7694 55.7172 70.5278C57.6525 70.2851 59.5878 70.0423 61.5231 69.7996C62.0082 69.7388 62.4933 69.6812 62.978 69.6176C63.4428 69.5565 63.903 69.4553 64.3679 69.3984C65.2654 69.2886 66.197 69.5439 67.0426 69.8247C67.9425 70.1235 68.8179 70.4988 69.759 70.6459C70.2124 70.7169 70.6722 70.7278 71.1268 70.6616C71.3597 70.6274 71.5862 70.5678 71.8158 70.5161C71.9365 70.489 72.0576 70.4647 72.1806 70.4514C72.2443 70.4447 72.3051 70.4294 72.3654 70.4125C72.4132 70.4318 72.462 70.4463 72.5159 70.4706C72.6534 70.5357 72.7592 70.3616 72.7103 70.2404Z" fill="#272525"/>
</g>
<path d="M33.424 26H30.4V7.24H33.424V15.192H44.456V7.24H47.452V26H44.456V17.908H33.424V26ZM54.3669 26.28C51.4829 26.28 49.6629 24.936 49.6629 22.64C49.6629 20.484 51.3989 19.364 54.1429 19.056L60.4709 18.384V17.572C60.4709 15.276 59.4629 14.464 56.8029 14.464C54.2269 14.464 52.9669 15.304 52.9669 17.348V17.46H49.9709V17.348C49.9709 14.184 52.6029 11.804 57.0269 11.804C61.4509 11.804 63.4389 14.212 63.4389 17.544V26H60.6669V22.528H60.4709C59.7429 24.88 57.5309 26.28 54.3669 26.28ZM52.6869 22.444C52.6869 23.564 53.4429 24.096 55.1789 24.096C58.3429 24.096 60.4709 22.92 60.4709 20.176L55.0109 20.792C53.4429 20.988 52.6869 21.352 52.6869 22.444ZM69.1623 26H66.1383V12.084H68.9103V16.396H69.1063C69.5263 14.044 71.3743 11.804 74.9023 11.804C78.7663 11.804 80.6703 14.408 80.6703 17.628V26H77.6463V18.44C77.6463 15.836 76.4703 14.52 73.5863 14.52C70.5343 14.52 69.1623 16.088 69.1623 19.112V26ZM87.4528 26.28C84.5688 26.28 82.7488 24.936 82.7488 22.64C82.7488 20.484 84.4848 19.364 87.2288 19.056L93.5568 18.384V17.572C93.5568 15.276 92.5488 14.464 89.8888 14.464C87.3128 14.464 86.0528 15.304 86.0528 17.348V17.46H83.0568V17.348C83.0568 14.184 85.6888 11.804 90.1128 11.804C94.5368 11.804 96.5248 14.212 96.5248 17.544V26H93.7528V22.528H93.5568C92.8288 24.88 90.6168 26.28 87.4528 26.28ZM85.7728 22.444C85.7728 23.564 86.5288 24.096 88.2648 24.096C91.4288 24.096 93.5568 22.92 93.5568 20.176L88.0968 20.792C86.5288 20.988 85.7728 21.352 85.7728 22.444ZM105.888 26H102.136L97.9642 12.084H101.1L103.424 19.98L104.068 23.564H104.292L105.328 19.7L108.24 12.084H112.104L115.044 19.7L116.08 23.564H116.304L116.948 19.98L119.272 12.084H122.352L118.124 26H114.372L111.32 17.992L110.256 14.576H110.032L108.968 17.992L105.888 26ZM127.976 26.28C125.092 26.28 123.272 24.936 123.272 22.64C123.272 20.484 125.008 19.364 127.752 19.056L134.08 18.384V17.572C134.08 15.276 133.072 14.464 130.412 14.464C127.836 14.464 126.576 15.304 126.576 17.348V17.46H123.58V17.348C123.58 14.184 126.212 11.804 130.636 11.804C135.06 11.804 137.048 14.212 137.048 17.544V26H134.276V22.528H134.08C133.352 24.88 131.14 26.28 127.976 26.28ZM126.296 22.444C126.296 23.564 127.052 24.096 128.788 24.096C131.952 24.096 134.08 22.92 134.08 20.176L128.62 20.792C127.052 20.988 126.296 21.352 126.296 22.444ZM153.412 26H138.992V23.396L146.076 17.068L149.016 14.856V14.632L146.076 14.744H139.412V12.084H152.992V14.688L145.404 21.352L142.828 23.256V23.48L145.404 23.34H153.412V26ZM159.531 26.28C156.647 26.28 154.827 24.936 154.827 22.64C154.827 20.484 156.563 19.364 159.307 19.056L165.635 18.384V17.572C165.635 15.276 164.627 14.464 161.967 14.464C159.391 14.464 158.131 15.304 158.131 17.348V17.46H155.135V17.348C155.135 14.184 157.767 11.804 162.191 11.804C166.615 11.804 168.603 14.212 168.603 17.544V26H165.831V22.528H165.635C164.907 24.88 162.695 26.28 159.531 26.28ZM157.851 22.444C157.851 23.564 158.607 24.096 160.343 24.096C163.507 24.096 165.635 22.92 165.635 20.176L160.175 20.792C158.607 20.988 157.851 21.352 157.851 22.444ZM174.326 26H171.302V7.24H174.326V17.6H178.302L182.474 12.084H186.002L180.766 18.776L185.974 26H182.418L178.302 20.316H174.326V26ZM190.514 10.46H187.49V7.24H190.514V10.46ZM190.514 26H187.49V12.084H190.514V26Z" fill="black"/>
</svg>
